<?xml version="1.0" encoding="UTF-8" standalone="no"?>
<!-- Created with Inkscape (http://www.inkscape.org/) -->

<svg
   xmlns:dc="http://purl.org/dc/elements/1.1/"
   xmlns:cc="http://creativecommons.org/ns#"
   xmlns:rdf="http://www.w3.org/1999/02/22-rdf-syntax-ns#"
   xmlns:svg="http://www.w3.org/2000/svg"
   xmlns="http://www.w3.org/2000/svg"
   xmlns:sodipodi="http://sodipodi.sourceforge.net/DTD/sodipodi-0.dtd"
   xmlns:inkscape="http://www.inkscape.org/namespaces/inkscape"
   id="svg3355"
   version="1.1"
   inkscape:version="0.91 r13725"
   xml:space="preserve"
   width="625"
   height="625"
   viewBox="0 0 625 625"
   sodipodi:docname="unicorn.svg"><metadata
     id="metadata3361"><rdf:RDF><cc:Work
         rdf:about=""><dc:format>image/svg+xml</dc:format><dc:type
           rdf:resource="http://purl.org/dc/dcmitype/StillImage" /><dc:title></dc:title></cc:Work></rdf:RDF></metadata><defs
     id="defs3359"><clipPath
       clipPathUnits="userSpaceOnUse"
       id="clipPath3371"><path
         d="M 0,0 500,0 500,500 0,500 0,0 Z"
         id="path3373"
         inkscape:connector-curvature="0" /></clipPath><clipPath
       clipPathUnits="userSpaceOnUse"
       id="clipPath3399"><path
         d="M 0,500 500,500 500,0 0,0 0,500 Z"
         id="path3401"
         inkscape:connector-curvature="0" /></clipPath><clipPath
       clipPathUnits="userSpaceOnUse"
       id="clipPath3415"><path
         d="m 196.567,167.154 41.855,0 0,-111.6188 -41.855,0 0,111.6188 z"
         id="path3417"
         inkscape:connector-curvature="0" /></clipPath><clipPath
       clipPathUnits="userSpaceOnUse"
       id="clipPath3435"><path
         d="m 359.49,196.408 56.628,0 0,-106.1385 -56.628,0 0,106.1385 z"
         id="path3437"
         inkscape:connector-curvature="0" /></clipPath><clipPath
       clipPathUnits="userSpaceOnUse"
       id="clipPath3467"><path
         d="m 359.525,233.645 27.506,0 0,-72.114 -27.506,0 0,72.114 z"
         id="path3469"
         inkscape:connector-curvature="0" /></clipPath><clipPath
       clipPathUnits="userSpaceOnUse"
       id="clipPath3483"><path
         d="m 319.547,371.061 29.784,0 0,-75.928 -29.784,0 0,75.928 z"
         id="path3485"
         inkscape:connector-curvature="0" /></clipPath><clipPath
       clipPathUnits="userSpaceOnUse"
       id="clipPath3551"><path
         d="m 284.525,372.519 43.004,0 0,-49.311 -43.004,0 0,49.311 z"
         id="path3553"
         inkscape:connector-curvature="0" /></clipPath><clipPath
       clipPathUnits="userSpaceOnUse"
       id="clipPath3751"><path
         d="m 302.225,268.234 52.959,0 0,-30.63 -52.959,0 0,30.63 z"
         id="path3753"
         inkscape:connector-curvature="0" /></clipPath><clipPath
       clipPathUnits="userSpaceOnUse"
       id="clipPath3767"><path
         d="m 363.828,343.288 22.213,0 0,-61.673 -22.213,0 0,61.673 z"
         id="path3769"
         inkscape:connector-curvature="0" /></clipPath><clipPath
       clipPathUnits="userSpaceOnUse"
       id="clipPath3787"><path
         d="m 322.122,149.959 33.853,0 0,-63.543 -33.853,0 0,63.543 z"
         id="path3789"
         inkscape:connector-curvature="0" /></clipPath><clipPath
       clipPathUnits="userSpaceOnUse"
       id="clipPath3803"><path
         d="m 168.385,161.332 176.295,0 0,-103.7011 -176.295,0 0,103.7011 z"
         id="path3805"
         inkscape:connector-curvature="0" /></clipPath><clipPath
       clipPathUnits="userSpaceOnUse"
       id="clipPath3899"><path
         d="m 213.876,479.322 96.573,0 0,-71.219 -96.573,0 0,71.219 z"
         id="path3901"
         inkscape:connector-curvature="0" /></clipPath><clipPath
       clipPathUnits="userSpaceOnUse"
       id="clipPath3915"><path
         d="m 253.24,451.401 4.673,0 0,-4.834 -4.673,0 0,4.834 z"
         id="path3917"
         inkscape:connector-curvature="0" /></clipPath><clipPath
       clipPathUnits="userSpaceOnUse"
       id="clipPath3931"><path
         d="m 178.103,442.429 32.619,0 0,-46.588 -32.619,0 0,46.588 z"
         id="path3933"
         inkscape:connector-curvature="0" /></clipPath><clipPath
       clipPathUnits="userSpaceOnUse"
       id="clipPath3975"><path
         d="M 0,500 500,500 500,0 0,0 0,500 Z"
         id="path3977"
         inkscape:connector-curvature="0" /></clipPath><clipPath
       clipPathUnits="userSpaceOnUse"
       id="clipPath4027"><path
         d="M 0,500 500,500 500,0 0,0 0,500 Z"
         id="path4029"
         inkscape:connector-curvature="0" /></clipPath></defs><sodipodi:namedview
     pagecolor="#ffffff"
     bordercolor="#666666"
     borderopacity="1"
     objecttolerance="10"
     gridtolerance="10"
     guidetolerance="10"
     inkscape:pageopacity="0"
     inkscape:pageshadow="2"
     inkscape:window-width="1301"
     inkscape:window-height="744"
     id="namedview3357"
     showgrid="false"
     inkscape:zoom="0.9712"
     inkscape:cx="312.5"
     inkscape:cy="312.5"
     inkscape:window-x="65"
     inkscape:window-y="24"
     inkscape:window-maximized="1"
     inkscape:current-layer="g3363" /><g
     id="g3363"
     inkscape:groupmode="layer"
     inkscape:label="139467-OT8EUG-462"
     transform="matrix(1.25,0,0,-1.25,0,625)"><path
       d="M 0,0 500,0 500,500 0,500 0,0 Z"
       style="fill:#3c51a1;fill-opacity:1;fill-rule:nonzero;stroke:none"
       id="path3365"
       inkscape:connector-curvature="0" /><g
       id="g3367"><g
         id="g3369"
         clip-path="url(#clipPath3371)"><g
           id="g3375"
           transform="translate(-10.9868,-137.498)"><path
             d="m 0,0 -21.623,22.6 c 53.333,48.47 193.387,104.941 319.637,135.152 58.445,13.984 111.711,21.793 155.764,23.525 47.269,1.858 85.654,-3.011 115.971,-13.992 l 1.839,-17.365 C 516.073,169.359 424.667,166.256 306.379,135.465 185.704,104.053 48.477,45.951 0,0"
             style="fill:#67acbd;fill-opacity:1;fill-rule:nonzero;stroke:none"
             id="path3377"
             inkscape:connector-curvature="0" /></g><g
           id="g3379"
           transform="translate(-13.1138,-108.4531)"><path
             d="m 0,0 -21.425,22.5 c 52.941,46.645 192.099,99.805 317.736,127.479 58.229,12.826 111.324,19.669 155.25,20.683 47.156,1.09 85.453,-4.301 115.688,-15.582 l 1.791,-17.117 C 513.678,157.965 422.499,156.348 304.596,127.951 184.499,99.025 48.131,44.242 0,0"
             style="fill:#8ccada;fill-opacity:1;fill-rule:nonzero;stroke:none"
             id="path3381"
             inkscape:connector-curvature="0" /></g><g
           id="g3383"
           transform="translate(-15.2017,-79.957)"><path
             d="m 0,0 -21.231,22.402 c 52.554,44.877 190.828,94.834 315.855,120.045 58.011,11.698 110.937,17.602 154.734,17.918 47.043,0.336 85.25,-5.562 115.406,-17.135 l 1.74,-16.873 C 511.295,146.902 420.348,146.736 302.833,120.672 183.308,94.162 47.79,42.592 0,0"
             style="fill:#ffe8f1;fill-opacity:1;fill-rule:nonzero;stroke:none"
             id="path3385"
             inkscape:connector-curvature="0" /></g><g
           id="g3387"
           transform="translate(-17.251,-51.9922)"><path
             d="m 0,0 -21.04,22.303 c 52.173,43.166 189.573,90.017 313.994,112.84 57.795,10.601 110.549,15.587 154.219,15.222 46.93,-0.392 85.045,-6.789 115.121,-18.648 l 1.689,-16.633 C 508.931,136.164 418.214,137.41 301.085,113.615 182.131,89.449 47.453,40.992 0,0"
             style="fill:#ffbdd7;fill-opacity:1;fill-rule:nonzero;stroke:none"
             id="path3389"
             inkscape:connector-curvature="0" /></g><g
           id="g3391"
           transform="translate(-19.2612,-24.543)"><path
             d="m 0,0 -20.853,22.203 c 51.796,41.51 188.331,85.352 312.149,105.854 57.58,9.533 110.162,13.629 153.705,12.599 46.817,-1.107 84.838,-7.988 114.834,-20.123 l 1.643,-16.398 C 506.576,125.734 416.095,128.359 299.355,106.773 180.966,84.883 47.12,39.443 0,0"
             style="fill:#b06683;fill-opacity:1;fill-rule:nonzero;stroke:none"
             id="path3393"
             inkscape:connector-curvature="0" /></g></g></g><g
       id="g3395"><g
         id="g3397"
         clip-path="url(#clipPath3399)"
         transform="translate(3.2948929,-4.1186161)"><g
           id="g3403"
           transform="translate(352.8945,364.5435)"><path
             d="m 0,0 c 18.537,22.89 46.359,7.814 43.283,-22.918 -3.076,-30.734 8.778,-31.914 22.363,-38.173 13.588,-6.259 30.356,-29.665 22.879,-54.673 -7.476,-25.008 -25.806,-34.819 -25.806,-34.819 -11.901,-34.521 -35.459,-39.113 -67.961,-30.525"
             style="fill:#ffbdd7;fill-opacity:1;fill-rule:nonzero;stroke:none"
             id="path3405"
             inkscape:connector-curvature="0" /></g><g
           id="g3407"
           transform="translate(233.3643,167.1543)"><path
             d="m 0,0 c 7.774,-23.436 9.871,-69.115 -18.236,-59.287 -10.545,1.144 3.94,-36.529 6.613,-47.623 2.675,-11.094 -13.641,0.014 -16.24,6.762 -2.599,6.748 -11.693,28.621 -8.108,55.043"
             style="fill:#ffffff;fill-opacity:1;fill-rule:nonzero;stroke:none"
             id="path3409"
             inkscape:connector-curvature="0" /></g><g
           id="g3411"><g
             id="g3413" /><g
             id="g3419"><g
               clip-path="url(#clipPath3415)"
               id="g3421"
               style="opacity:0.30000299"><g
                 transform="translate(233.3643,167.1543)"
                 id="g3423"><path
                   d="m 0,0 c 7.774,-23.436 9.871,-69.115 -18.236,-59.287 -10.545,1.144 3.94,-36.529 6.613,-47.623 2.675,-11.094 -13.641,0.014 -16.24,6.762 -2.599,6.748 -11.693,28.621 -8.108,55.043"
                   style="fill:#ffbdd7;fill-opacity:1;fill-rule:nonzero;stroke:none"
                   id="path3425"
                   inkscape:connector-curvature="0" /></g></g></g></g><g
           id="g3427"
           transform="translate(359.4902,154.8262)"><path
             d="M 0,0 C 21.473,-3.42 38.559,17.752 30.836,2.592 23.113,-12.568 2.549,-40.709 3.588,-49.619 c 1.039,-8.908 12.959,-19.516 16.461,-12.838 3.504,6.68 17.65,38.633 29.285,59.057 11.635,20.423 15.221,60.63 -35.166,38.546"
             style="fill:#ffffff;fill-opacity:1;fill-rule:nonzero;stroke:none"
             id="path3429"
             inkscape:connector-curvature="0" /></g><g
           id="g3431"><g
             id="g3433" /><g
             id="g3439"><g
               clip-path="url(#clipPath3435)"
               id="g3441"
               style="opacity:0.30000299"><g
                 transform="translate(359.4902,154.8262)"
                 id="g3443"><path
                   d="M 0,0 C 21.473,-3.42 38.559,17.752 30.836,2.592 23.113,-12.568 2.549,-40.709 3.588,-49.619 c 1.039,-8.908 12.959,-19.516 16.461,-12.838 3.504,6.68 17.65,38.633 29.285,59.057 11.635,20.423 15.221,60.63 -35.166,38.546"
                   style="fill:#ffbdd7;fill-opacity:1;fill-rule:nonzero;stroke:none"
                   id="path3445"
                   inkscape:connector-curvature="0" /></g></g></g></g><g
           id="g3447"
           transform="translate(287.9121,264.0317)"><path
             d="m 0,0 c -15.195,-9.112 -24.301,-7.847 -27.701,11.894 -3.399,19.74 -23.944,32.816 -35.05,13.018 -19.121,37.573 -60.294,6.034 -51.043,-34.982 9.251,-41.016 50.19,-51.579 71.578,-33.239 21.386,18.342 65.589,3.48 72.294,30.746"
             style="fill:#ffbdd7;fill-opacity:1;fill-rule:nonzero;stroke:none"
             id="path3449"
             inkscape:connector-curvature="0" /></g><g
           id="g3451"
           transform="translate(298.0137,253.4888)"><path
             d="m 0,0 c 0.125,-0.226 -3.896,-3.026 -11.422,-5.516 -0.943,-0.295 -1.949,-0.557 -2.994,-0.842 -1.068,-0.203 -2.16,-0.508 -3.332,-0.641 -2.316,-0.382 -4.867,-0.503 -7.543,-0.253 -2.672,0.255 -5.479,0.955 -8.15,2.244 -2.655,1.312 -5.139,3.196 -7.231,5.493 -2.09,2.305 -3.736,4.848 -5.043,7.408 -1.328,2.555 -2.32,5.132 -3.165,7.596 -0.826,2.522 -1.473,4.723 -2.472,6.657 -0.974,1.91 -2.24,3.514 -3.693,4.35 -1.446,0.852 -3.001,0.821 -4.197,0.204 -1.203,-0.616 -2.031,-1.601 -2.634,-2.43 -0.564,-0.868 -0.973,-1.591 -1.21,-2.104 -0.263,-0.503 -0.446,-0.763 -0.533,-0.737 -0.088,0.023 -0.077,0.332 0.031,0.912 0.081,0.586 0.349,1.415 0.828,2.451 0.53,0.998 1.316,2.246 2.796,3.193 0.393,0.191 0.762,0.481 1.239,0.576 0.232,0.065 0.467,0.131 0.706,0.197 0.239,0.071 0.497,0.046 0.752,0.07 1.038,0.102 2.105,-0.23 3.108,-0.692 1.997,-1.007 3.54,-2.857 4.724,-4.939 1.197,-2.086 2.012,-4.565 2.845,-6.899 1.754,-4.715 4.055,-9.84 7.865,-14.034 1.899,-2.083 4.094,-3.762 6.432,-4.958 2.354,-1.17 4.84,-1.848 7.268,-2.142 2.427,-0.291 4.796,-0.268 6.996,0.005 1.105,0.077 2.16,0.323 3.183,0.461 1.012,0.224 1.991,0.42 2.916,0.648 C -4.531,-1.774 -0.191,0.424 0,0"
             style="fill:#ffe6f0;fill-opacity:1;fill-rule:nonzero;stroke:none"
             id="path3453"
             inkscape:connector-curvature="0" /></g><g
           id="g3455"
           transform="translate(163.6909,232.9863)"><path
             d="m 0,0 c 13.475,33.058 -12.211,48.604 -26.669,47.969 -14.458,-0.634 -34.38,-2.744 -42.801,9.391 7.037,9.515 5.687,17.82 3.715,20.557 24.693,-3.729 35.131,17.1 31.592,30.734 -3.581,13.787 -47.938,41.175 -69.891,-25.682 -36.742,-34.215 0.655,-62.199 9.579,-63.915 12.887,-53.191 45.347,-35.372 57.564,-25.347 12.219,10.023 28.171,3.238 31.13,-4.35 C -1.552,-12.609 0,0 0,0"
             style="fill:#ffbdd7;fill-opacity:1;fill-rule:nonzero;stroke:none"
             id="path3457"
             inkscape:connector-curvature="0" /></g><g
           id="g3459"
           transform="translate(346.8105,359.2432)"><path
             d="m 0,0 c -44.059,-4.137 -32.709,-40.768 -41.486,-60.661 -8.776,-19.894 -26.809,-26.342 -19.45,-41.397 7.362,-15.054 28.59,-12.109 31.471,-8.384 -22.168,-36.69 -127.425,13.962 -158.097,-18.219 -30.671,-32.182 28.949,-78.541 23.745,-89.137 -25.872,7.404 -29.399,1.014 -27.702,-22.644 1.698,-23.657 2.266,-44.215 4.381,-48.682 2.118,-4.465 17.092,-20.33 15.162,-7.723 -1.931,12.61 -6.504,60.114 1.568,57.309 8.073,-2.805 55.427,-24.076 46.116,31.447 41.981,-29.849 101.542,-27.168 141.169,12.444 C 56.502,-156.038 44.436,-5.553 0,0"
             style="fill:#ffffff;fill-opacity:1;fill-rule:nonzero;stroke:none"
             id="path3461"
             inkscape:connector-curvature="0" /></g><g
           id="g3463"><g
             id="g3465" /><g
             id="g3471"><g
               clip-path="url(#clipPath3467)"
               id="g3473"
               style="opacity:0.30000299"><g
                 transform="translate(359.5254,171.6621)"
                 id="g3475"><path
                   d="m 0,0 2.041,-10.131 c 0.711,0.678 1.42,1.363 2.121,2.065 C 17.826,5.592 25.344,32.439 27.506,61.982 21.982,28.916 6.385,7.557 0,0"
                   style="fill:#ffbdd7;fill-opacity:1;fill-rule:nonzero;stroke:none"
                   id="path3477"
                   inkscape:connector-curvature="0" /></g></g></g></g><g
           id="g3479"><g
             id="g3481" /><g
             id="g3487"><g
               clip-path="url(#clipPath3483)"
               id="g3489"
               style="opacity:0.30000299"><g
                 transform="translate(319.5469,295.1333)"
                 id="g3491"><path
                   d="m 0,0 c 12.57,4.104 30.279,24.748 29.773,46.327 -0.507,21.579 -1.761,29.6 -1.761,29.6 0,0 -20.651,-9.861 -20.817,-9.585"
                   style="fill:#ffbdd7;fill-opacity:1;fill-rule:nonzero;stroke:none"
                   id="path3493"
                   inkscape:connector-curvature="0" /></g></g></g></g><g
           id="g3495"
           transform="translate(321.8086,150.7891)"><path
             d="m 0,0 c 21.475,-3.42 34.131,-2.066 26.408,-17.227 -7.724,-15.16 -27.094,-33.332 -26.054,-42.242 1.039,-8.908 10.535,-21.752 14.037,-15.072 3.502,6.68 22.863,35.297 34.498,55.721 11.634,20.424 22.277,49.179 -10.741,41.472"
             style="fill:#ffffff;fill-opacity:1;fill-rule:nonzero;stroke:none"
             id="path3497"
             inkscape:connector-curvature="0" /></g><g
           id="g3499"
           transform="translate(350.2832,305.8423)"><path
             d="M 0,0 C 0.182,-0.007 0.326,-0.335 0.432,-0.941 0.486,-1.244 0.529,-1.616 0.561,-2.05 0.578,-2.483 0.535,-2.976 0.498,-3.525 0.48,-4.078 0.352,-4.672 0.203,-5.313 c -0.111,-0.649 -0.387,-1.313 -0.66,-2.019 -0.627,-1.369 -1.566,-2.894 -3.18,-3.971 -1.595,-1.097 -3.674,-1.349 -5.271,-0.887 -1.623,0.46 -2.727,1.412 -3.52,2.227 -0.738,0.876 -1.217,1.641 -1.414,2.241 -0.222,0.584 -0.263,0.939 -0.111,1.035 0.156,0.097 0.488,-0.07 0.941,-0.433 0.43,-0.384 1.071,-0.885 1.826,-1.453 0.791,-0.504 1.739,-1.062 2.823,-1.25 1.076,-0.172 2.226,0.02 3.275,0.72 1.053,0.696 1.834,1.785 2.449,2.84 0.274,0.555 0.58,1.067 0.758,1.612 0.211,0.528 0.428,1.02 0.553,1.502 0.158,0.477 0.301,0.908 0.428,1.288 0.103,0.389 0.207,0.726 0.31,1.003 C -0.385,-0.305 -0.184,0.007 0,0"
             style="fill:#b06683;fill-opacity:1;fill-rule:nonzero;stroke:none"
             id="path3501"
             inkscape:connector-curvature="0" /></g><g
           id="g3503"
           transform="translate(355.8848,363.4883)"><path
             d="m 0,0 c -8.736,27.999 -27.754,19.435 -27.848,17.105 -5.742,3.582 -8.818,-3.86 -8.818,-3.86 -12.143,2.027 -28.465,-18.718 -27.541,-36.635 -27.6,14.152 -42.093,-46.491 7.186,-40.608 27.707,-18.859 46.8,16.412 45.242,45.305 -0.203,16.236 11.808,11.44 11.808,11.44 L 0,0 Z"
             style="fill:#ffbdd7;fill-opacity:1;fill-rule:nonzero;stroke:none"
             id="path3505"
             inkscape:connector-curvature="0" /></g><g
           id="g3507"
           transform="translate(365.5469,286.5186)"><path
             d="m 0,0 c 0.16,-0.033 0.143,-1.111 -0.223,-3.016 -0.365,-1.9 -1.099,-4.652 -2.734,-7.79 -1.615,-3.119 -4.355,-6.59 -8.356,-9.153 -1.982,-1.287 -4.22,-2.348 -6.56,-3.247 -2.322,-0.915 -4.805,-1.641 -6.981,-2.675 -0.529,-0.268 -1.039,-0.546 -1.46,-0.869 -0.223,-0.153 -0.411,-0.323 -0.588,-0.496 -0.178,-0.158 -0.465,-0.451 -0.69,-0.668 -0.959,-0.946 -1.953,-1.759 -2.949,-2.537 -1.994,-1.54 -4.008,-2.872 -5.971,-4.06 -3.943,-2.346 -7.705,-4.093 -10.988,-5.248 -3.279,-1.164 -6.096,-1.678 -8.053,-1.762 -0.974,-0.082 -1.742,0 -2.252,0.077 -0.511,0.07 -0.773,0.152 -0.771,0.244 0.004,0.09 0.269,0.187 0.763,0.287 0.495,0.096 1.213,0.178 2.127,0.41 1.827,0.387 4.434,1.143 7.51,2.482 3.078,1.33 6.637,3.192 10.385,5.574 1.863,1.205 3.779,2.536 5.65,4.026 0.93,0.746 1.866,1.529 2.705,2.373 l 0.678,0.666 c 0.279,0.275 0.569,0.531 0.873,0.747 0.604,0.458 1.237,0.802 1.869,1.12 2.539,1.197 4.973,1.867 7.229,2.724 2.258,0.832 4.34,1.77 6.182,2.889 3.701,2.225 6.308,5.213 8.029,8.021 1.73,2.816 2.713,5.373 3.365,7.143 C -0.555,-0.964 -0.195,0.042 0,0"
             style="fill:#ffbdd7;fill-opacity:1;fill-rule:nonzero;stroke:none"
             id="path3509"
             inkscape:connector-curvature="0" /></g><g
           id="g3511"
           transform="translate(309.5566,258.5952)"><path
             d="m 0,0 c 0.355,-0.006 0.693,-0.913 0.818,-2.43 0.049,-0.759 0.061,-1.67 -0.076,-2.69 -0.127,-1.017 -0.375,-2.153 -0.9,-3.302 -0.514,-1.146 -1.281,-2.181 -2.19,-2.906 -0.923,-0.718 -1.929,-1.074 -2.756,-1.207 -0.833,-0.105 -1.494,-0.06 -1.933,0.092 -0.442,0.133 -0.666,0.295 -0.664,0.477 -0.006,0.4 0.918,0.644 2.055,1.215 0.56,0.302 1.154,0.691 1.689,1.243 0.523,0.567 0.998,1.293 1.396,2.172 0.801,1.762 1.149,3.688 1.52,5.057 C -0.695,-0.891 -0.371,0.007 0,0"
             style="fill:#b06683;fill-opacity:1;fill-rule:nonzero;stroke:none"
             id="path3513"
             inkscape:connector-curvature="0" /></g><g
           id="g3515"
           transform="translate(303.0879,266.4683)"><path
             d="m 0,0 c -0.158,-0.083 -0.4,-0.055 -0.617,-0.008 -0.264,0.022 -0.524,0.072 -0.873,0.05 -0.674,0.005 -1.555,-0.266 -2.303,-0.898 -0.742,-0.666 -1.279,-1.63 -1.666,-2.425 -0.404,-0.781 -0.734,-1.357 -1.115,-1.334 -0.342,0.015 -0.684,0.634 -0.709,1.719 -0.037,1.047 0.32,2.721 1.762,4.033 1.476,1.289 3.537,1.367 4.636,0.668 C -0.312,1.505 0.021,1.021 0.143,0.683 0.232,0.295 0.16,0.082 0,0"
             style="fill:#ffbdd7;fill-opacity:1;fill-rule:nonzero;stroke:none"
             id="path3517"
             inkscape:connector-curvature="0" /></g><g
           id="g3519"
           transform="translate(349.3418,344.6548)"><path
             d="M 0,0 C -6.639,13.374 3.523,44.411 16.875,47.854 31.248,32.229 20.465,-1.763 14.486,-6.62"
             style="fill:#ffffff;fill-opacity:1;fill-rule:nonzero;stroke:none"
             id="path3521"
             inkscape:connector-curvature="0" /></g><g
           id="g3523"
           transform="translate(309.2676,311.249)"><path
             d="M 0,0 C -0.027,0.094 0.41,0.318 1.189,0.718 1.92,1.174 3.033,1.949 3.604,3.403 3.848,4.133 3.93,5.005 3.701,5.892 3.479,6.77 2.916,7.655 2.059,8.16 1.641,8.432 1.135,8.541 0.613,8.588 0.35,8.593 0.076,8.539 -0.197,8.528 -0.506,8.453 -0.818,8.377 -1.135,8.3 -2.385,7.955 -3.648,7.401 -4.691,6.515 -5.227,6.087 -5.656,5.54 -6.045,4.96 -6.383,4.35 -6.693,3.7 -6.828,2.977 -6.973,2.263 -7.037,1.506 -6.939,0.739 c 0.066,-0.767 0.267,-1.542 0.58,-2.286 0.599,-1.501 1.675,-2.864 3.052,-3.884 1.399,-0.994 3.102,-1.643 4.938,-1.744 1.826,-0.128 3.756,0.203 5.615,0.926 0.455,0.2 0.916,0.374 1.379,0.593 0.459,0.251 0.922,0.503 1.389,0.757 0.92,0.521 1.898,0.97 2.769,1.603 3.639,2.277 7.01,5.29 9.188,9.156 l 0.422,0.714 c 0.123,0.247 0.218,0.506 0.33,0.757 l 0.648,1.509 c 0.168,0.519 0.307,1.049 0.463,1.569 l 0.228,0.781 c 0.063,0.264 0.094,0.535 0.143,0.801 0.092,0.535 0.184,1.068 0.274,1.599 0.052,0.538 0.076,1.079 0.115,1.615 0.121,1.069 0.013,2.153 0.013,3.217 -0.242,4.28 -1.269,8.396 -2.39,12.267 -2.315,7.745 -5.071,14.644 -6.412,20.794 -0.686,3.063 -1.057,5.934 -0.918,8.478 -0.018,0.632 0.095,1.245 0.164,1.831 0.076,0.587 0.131,1.152 0.301,1.678 0.142,0.527 0.279,1.031 0.408,1.512 0.181,0.464 0.385,0.896 0.56,1.307 0.315,0.842 0.811,1.479 1.18,2.054 0.35,0.59 0.762,1.002 1.092,1.33 0.654,0.665 1.021,0.973 1.088,0.911 0.066,-0.063 -0.172,-0.495 -0.67,-1.24 C 18.756,68.975 18.428,68.533 18.168,67.932 17.889,67.345 17.488,66.715 17.271,65.9 17.143,65.503 16.988,65.092 16.855,64.652 16.77,64.197 16.678,63.721 16.584,63.223 16.461,62.734 16.447,62.2 16.41,61.651 c -0.027,-0.549 -0.103,-1.114 -0.051,-1.712 0.006,-2.374 0.481,-5.082 1.258,-8.018 1.522,-5.899 4.426,-12.652 6.924,-20.528 1.211,-3.945 2.346,-8.206 2.645,-12.82 0.013,-1.158 0.13,-2.321 0.011,-3.507 -0.041,-0.591 -0.062,-1.186 -0.121,-1.781 -0.097,-0.593 -0.195,-1.189 -0.295,-1.786 -0.052,-0.299 -0.09,-0.6 -0.16,-0.896 L 26.371,9.72 C 26.197,9.132 26.041,8.536 25.85,7.95 25.607,7.38 25.363,6.81 25.121,6.236 24.994,5.952 24.883,5.66 24.744,5.381 L 24.271,4.572 C 21.799,0.188 18.045,-3.09 14.16,-5.481 13.219,-6.147 12.184,-6.619 11.199,-7.161 10.703,-7.424 10.209,-7.685 9.717,-7.945 9.201,-8.184 8.652,-8.39 8.127,-8.608 c -2.139,-0.8 -4.439,-1.183 -6.69,-0.989 -2.251,0.164 -4.404,1.014 -6.126,2.306 -1.707,1.317 -3.002,3.049 -3.706,4.945 -0.365,0.941 -0.589,1.923 -0.65,2.905 -0.09,0.978 0.014,1.959 0.236,2.885 0.213,0.936 0.641,1.79 1.122,2.57 0.529,0.747 1.125,1.428 1.816,1.944 1.363,1.068 2.896,1.644 4.336,1.971 0.363,0.069 0.723,0.137 1.074,0.205 0.402,0.015 0.795,0.058 1.182,0.028 C 1.5,10.065 2.252,9.833 2.848,9.404 4.07,8.577 4.717,7.318 4.928,6.159 5.145,4.985 4.939,3.883 4.551,3.007 3.666,1.259 2.266,0.571 1.414,0.236 0.506,-0.033 0.02,-0.08 0,0"
             style="fill:#ffe6f0;fill-opacity:1;fill-rule:nonzero;stroke:none"
             id="path3525"
             inkscape:connector-curvature="0" /></g><g
           id="g3527"
           transform="translate(298.7031,322.9863)"><path
             d="m 0,0 c -0.266,0.377 2.711,2.237 6.156,6.396 0.436,0.511 0.826,1.1 1.274,1.677 0.422,0.597 0.814,1.249 1.24,1.906 0.764,1.373 1.562,2.847 2.17,4.51 1.299,3.287 2.092,7.146 2.584,11.279 0.482,4.139 0.685,8.166 1.066,11.854 0.365,3.686 0.949,7.042 1.836,9.768 0.861,2.735 2.024,4.796 2.998,6.061 0.455,0.657 0.916,1.087 1.219,1.377 0.312,0.286 0.508,0.405 0.578,0.349 0.373,-0.271 -1.834,-2.989 -2.998,-8.284 C 17.512,44.265 17.139,41.049 16.91,37.417 16.668,33.788 16.541,29.738 16.043,25.457 15.535,21.183 14.621,17.071 13.088,13.569 12.367,11.802 11.426,10.235 10.516,8.808 10.016,8.122 9.547,7.45 9.049,6.842 8.527,6.254 8.061,5.662 7.549,5.157 3.49,1.051 0.117,-0.23 0,0"
             style="fill:#ffe6f0;fill-opacity:1;fill-rule:nonzero;stroke:none"
             id="path3529"
             inkscape:connector-curvature="0" /></g><g
           id="g3531"
           transform="translate(289.125,341.1187)"><path
             d="m 0,0 c 0.016,0.158 0.791,0.28 2.078,-0.166 1.274,-0.447 2.969,-1.521 4.535,-3.324 1.563,-1.793 3.086,-4.272 3.875,-7.388 0.385,-1.553 0.604,-3.267 0.41,-5.064 -0.162,-1.79 -0.785,-3.655 -1.878,-5.279 -0.565,-0.796 -1.198,-1.532 -1.915,-2.14 -0.738,-0.61 -1.599,-1.184 -2.503,-1.495 -1.805,-0.678 -3.666,-0.668 -5.295,-0.335 -3.291,0.702 -5.731,2.725 -7.069,4.816 -1.31,2.155 -1.443,4.313 -1.14,5.614 0.025,0.336 0.132,0.618 0.228,0.86 0.092,0.241 0.176,0.442 0.252,0.599 0.152,0.315 0.274,0.461 0.361,0.434 0.086,-0.026 0.137,-0.222 0.157,-0.558 0.008,-0.167 0.009,-0.37 0.004,-0.604 -0.012,-0.234 -0.034,-0.499 0.021,-0.799 0.025,-1.182 0.428,-2.878 1.652,-4.488 1.256,-1.561 3.37,-3.058 5.989,-3.488 1.289,-0.202 2.674,-0.14 3.904,0.356 0.633,0.234 1.152,0.606 1.705,1.054 0.561,0.483 1.035,1.053 1.469,1.658 1.695,2.478 1.851,5.631 1.281,8.314 C 7.566,-8.707 6.373,-6.387 5.154,-4.649 3.926,-2.896 2.613,-1.748 1.623,-1.086 0.631,-0.428 -0.033,-0.2 0,0"
             style="fill:#ffe6f0;fill-opacity:1;fill-rule:nonzero;stroke:none"
             id="path3533"
             inkscape:connector-curvature="0" /></g><g
           id="g3535"
           transform="translate(301.2598,297.7314)"><path
             d="m 0,0 c -0.111,-0.143 -0.57,0.018 -1.324,0.45 -0.733,0.452 -1.744,1.216 -2.768,2.427 -1.023,1.198 -2.043,2.898 -2.539,5.03 -0.494,2.125 -0.334,4.628 0.543,6.96 1.817,4.688 5.641,7.59 8.715,8.517 1.557,0.47 2.932,0.438 3.809,0.207 C 6.879,23.481 7.201,23.332 7.4,23.184 7.602,23.046 7.687,22.935 7.66,22.848 7.539,22.467 5.752,22.87 3.299,21.644 0.895,20.475 -2.146,17.774 -3.621,13.938 -4.328,12.029 -4.518,10.088 -4.244,8.368 -3.967,6.646 -3.301,5.152 -2.58,3.968 -1.131,1.586 0.275,0.327 0,0"
             style="fill:#ffe6f0;fill-opacity:1;fill-rule:nonzero;stroke:none"
             id="path3537"
             inkscape:connector-curvature="0" /></g><g
           id="g3539"
           transform="translate(343.5254,332.7012)"><path
             d="m 0,0 c -0.387,0.068 -0.219,2.422 -0.26,6.169 -0.031,3.751 -0.402,8.893 -1.377,14.549 -0.906,5.665 -2.183,10.781 -2.15,14.828 0.012,1.006 0.148,1.959 0.432,2.777 0.126,0.411 0.347,0.777 0.542,1.1 0.254,0.3 0.465,0.579 0.741,0.75 0.244,0.202 0.496,0.313 0.717,0.392 0.212,0.096 0.404,0.128 0.562,0.137 0.313,0.027 0.475,-0.006 0.5,-0.093 0.074,-0.203 -0.521,-0.463 -1.068,-1.175 C -1.936,38.758 -2.121,37.405 -1.924,35.62 -1.52,32.034 0.027,26.946 0.965,21.148 1.965,15.349 2.059,9.925 1.602,6.074 1.158,2.212 0.328,-0.063 0,0"
             style="fill:#ffe6f0;fill-opacity:1;fill-rule:nonzero;stroke:none"
             id="path3541"
             inkscape:connector-curvature="0" /></g><g
           id="g3543"
           transform="translate(313.3301,324.2139)"><path
             d="M 0,0 C -14.541,14.161 -44.01,47.092 -45.406,53.36 -46.805,59.628 -8.434,38.182 7.74,25.32 21.029,12.216 11.484,-5.419 0,0"
             style="fill:#67acbd;fill-opacity:1;fill-rule:nonzero;stroke:none"
             id="path3545"
             inkscape:connector-curvature="0" /></g><g
           id="g3547"><g
             id="g3549" /><g
             id="g3555"><g
               clip-path="url(#clipPath3551)"
               id="g3557"
               style="opacity:0.5"><g
                 transform="translate(321.0703,349.5342)"
                 id="g3559"><path
                   d="M 0,0 C -8.902,7.079 -24.525,16.756 -36.545,22.984 -17.178,6.269 5.23,-16.707 0.217,-20.317 -4.385,-23.63 -15.627,-15.395 -30.451,-1.273 -22.357,-10.357 -13.768,-19.451 -7.74,-25.32 3.744,-30.739 13.289,-13.104 0,0"
                   style="fill:#4a8594;fill-opacity:1;fill-rule:nonzero;stroke:none"
                   id="path3561"
                   inkscape:connector-curvature="0" /></g></g></g></g><g
           id="g3563"
           transform="translate(419.3672,219.3555)"><path
             d="m 0,0 c -0.187,0.08 0.625,2.398 2.012,6.58 0.316,1.055 0.67,2.227 1.056,3.508 0.414,1.273 0.684,2.705 1.078,4.213 0.745,3.025 1.303,6.527 1.645,10.4 0.215,3.879 0.086,8.154 -0.934,12.561 -1.015,4.4 -2.939,8.898 -5.873,13.065 -2.937,4.171 -6.713,8.057 -10.945,11.797 -4.191,3.784 -8.851,7.436 -13.203,11.786 -4.371,4.276 -8.139,9.381 -9.856,15.164 -0.796,2.915 -1.136,5.776 -1.283,8.561 -0.154,2.786 -0.144,5.498 -0.086,8.133 0.127,5.27 0.461,10.233 0.66,14.869 0.202,4.634 0.309,8.943 0.116,12.85 -0.182,3.905 -0.637,7.415 -1.485,10.363 -0.822,2.953 -2.011,5.337 -3.343,7.015 -1.317,1.706 -2.723,2.656 -3.639,3.344 -0.988,0.574 -1.502,0.925 -1.469,1.008 0.035,0.084 0.621,-0.1 1.731,-0.545 1.033,-0.559 2.625,-1.424 4.162,-3.147 1.552,-1.69 2.967,-4.178 3.968,-7.243 1.03,-3.063 1.629,-6.686 1.936,-10.679 0.648,-7.999 -0.039,-17.481 -0.207,-27.876 -0.025,-2.598 -0.006,-5.254 0.17,-7.938 0.162,-2.685 0.523,-5.401 1.246,-7.982 1.582,-5.19 5.012,-9.892 9.244,-14.033 4.194,-4.198 8.826,-7.86 13.067,-11.73 C -5.959,60.22 -2.055,56.142 0.986,51.703 4.027,47.267 6.016,42.417 6.99,37.736 7.977,33.041 7.994,28.559 7.648,24.549 7.176,20.549 6.469,16.982 5.574,13.936 5.105,12.418 4.758,10.98 4.268,9.713 3.797,8.441 3.365,7.281 2.979,6.236 1.281,2.119 0.146,-0.062 0,0"
             style="fill:#ffe6f0;fill-opacity:1;fill-rule:nonzero;stroke:none"
             id="path3565"
             inkscape:connector-curvature="0" /></g><g
           id="g3567"
           transform="translate(222.1685,293.4805)"><path
             d="m 0,0 c 0.119,0.086 1.279,-1.2 2.648,-3.979 1.366,-2.764 2.845,-7.051 3.531,-12.55 0.646,-5.466 0.668,-12.251 -1.834,-19.337 -0.674,-1.746 -1.5,-3.502 -2.594,-5.175 -1.123,-1.651 -2.504,-3.213 -4.19,-4.502 -3.376,-2.615 -8.021,-3.67 -12.356,-3.131 -4.362,0.461 -8.392,1.926 -11.902,4.11 -3.479,2.212 -6.262,5.274 -7.996,8.647 -0.876,1.68 -1.545,3.417 -1.948,5.161 -0.248,0.861 -0.345,1.74 -0.5,2.591 -0.066,0.866 -0.19,1.71 -0.172,2.549 -0.081,3.352 0.596,6.458 1.702,9.078 1.083,2.637 2.709,4.738 4.407,6.231 1.71,1.503 3.516,2.349 5.021,2.81 3.08,0.808 4.826,0.364 4.806,0.26 0.013,-0.251 -1.727,-0.19 -4.469,-1.229 -1.341,-0.572 -2.903,-1.467 -4.353,-2.92 -1.44,-1.446 -2.804,-3.405 -3.681,-5.845 -0.899,-2.422 -1.414,-5.271 -1.247,-8.312 0.002,-0.762 0.143,-1.526 0.219,-2.305 0.165,-0.768 0.267,-1.56 0.512,-2.33 0.398,-1.565 1.035,-3.108 1.845,-4.593 1.607,-2.983 4.103,-5.653 7.233,-7.609 3.13,-1.921 6.903,-3.27 10.789,-3.671 1.937,-0.236 3.858,-0.127 5.648,0.311 1.789,0.433 3.479,1.168 4.895,2.265 1.429,1.075 2.637,2.401 3.65,3.842 0.985,1.466 1.76,3.041 2.41,4.631 2.434,6.48 2.65,13.005 2.25,18.284 -0.428,5.322 -1.582,9.537 -2.62,12.337 C 0.667,-1.572 -0.183,-0.116 0,0"
             style="fill:#ffe6f0;fill-opacity:1;fill-rule:nonzero;stroke:none"
             id="path3569"
             inkscape:connector-curvature="0" /></g><g
           id="g3571"
           transform="translate(227.4956,274.1187)"><path
             d="m 0,0 c 0.198,0.011 0.372,-0.756 0.712,-2.092 0.338,-1.335 0.855,-3.254 1.847,-5.443 0.496,-1.092 1.121,-2.246 1.926,-3.363 0.803,-1.107 1.787,-2.211 2.985,-2.979 1.195,-0.771 2.57,-1.117 3.792,-0.626 0.616,0.233 1.209,0.663 1.751,1.22 0.533,0.576 1.007,1.269 1.437,2.02 0.856,1.548 1.367,3.132 1.512,4.724 0.102,1.584 -0.133,3.138 -0.705,4.488 -0.545,1.357 -1.396,2.524 -2.358,3.328 C 11.945,2.113 10.836,2.488 10.013,2.342 9.189,2.191 8.58,1.449 8.225,0.648 7.854,-0.148 7.689,-0.961 7.565,-1.621 7.446,-2.287 7.372,-2.82 7.31,-3.188 7.237,-3.553 7.155,-3.752 7.064,-3.759 6.974,-3.766 6.878,-3.578 6.778,-3.207 6.669,-2.838 6.577,-2.285 6.542,-1.555 6.515,-0.826 6.525,0.089 6.843,1.161 c 0.066,0.271 0.17,0.545 0.313,0.825 0.114,0.287 0.307,0.562 0.51,0.845 0.43,0.54 1.058,1.078 1.87,1.314 1.637,0.464 3.384,-0.143 4.701,-1.139 1.358,-0.996 2.483,-2.406 3.244,-4.084 0.788,-1.668 1.155,-3.629 1.057,-5.637 -0.128,-2.002 -0.786,-4.039 -1.782,-5.827 -0.518,-0.905 -1.11,-1.778 -1.853,-2.56 -0.756,-0.767 -1.677,-1.443 -2.754,-1.827 -1.071,-0.392 -2.26,-0.44 -3.303,-0.202 -1.05,0.233 -1.956,0.701 -2.733,1.238 -1.548,1.096 -2.608,2.461 -3.446,3.782 -0.833,1.329 -1.415,2.652 -1.84,3.884 -0.845,2.472 -1.098,4.563 -1.132,5.997 C -0.34,-0.795 -0.165,-0.006 0,0"
             style="fill:#ffe6f0;fill-opacity:1;fill-rule:nonzero;stroke:none"
             id="path3573"
             inkscape:connector-curvature="0" /></g><g
           id="g3575"
           transform="translate(208.9614,246.0078)"><path
             d="m 0,0 c -0.027,0.232 1.602,0.354 4.204,1.379 1.28,0.551 2.78,1.381 4.226,2.688 1.447,1.3 2.771,3.126 3.766,5.36 1.969,4.492 2.294,10.717 0.349,16.992 -0.961,3.135 -2.458,6.29 -4.496,9.232 -1.005,1.464 -2.154,2.94 -3.416,4.217 -0.601,0.67 -1.312,1.22 -2.001,1.804 -0.743,0.506 -1.476,1.046 -2.296,1.442 -1.608,0.841 -3.328,1.427 -5.088,1.693 -1.761,0.258 -3.537,0.248 -5.267,0.036 -1.733,-0.215 -3.402,-0.698 -4.999,-1.266 -1.591,-0.598 -3.088,-1.353 -4.496,-2.185 -5.611,-3.426 -9.496,-8.225 -11.851,-12.625 -2.381,-4.432 -3.366,-8.472 -3.83,-11.266 -0.107,-0.705 -0.202,-1.332 -0.284,-1.875 -0.064,-0.546 -0.119,-1.011 -0.163,-1.386 -0.099,-0.752 -0.194,-1.152 -0.285,-1.153 -0.092,-0.002 -0.174,0.396 -0.246,1.163 -0.031,0.382 -0.081,0.859 -0.09,1.421 0.014,0.564 0.03,1.213 0.048,1.946 0.161,2.912 0.893,7.204 3.189,11.996 2.274,4.757 6.23,10.014 12.237,13.846 3.004,1.876 6.518,3.384 10.422,3.943 1.948,0.26 3.977,0.289 6.012,-0.002 2.034,-0.298 4.048,-0.973 5.92,-1.953 0.955,-0.467 1.807,-1.086 2.662,-1.68 0.796,-0.668 1.607,-1.313 2.29,-2.073 1.42,-1.46 2.587,-2.989 3.668,-4.59 2.157,-3.179 3.721,-6.596 4.69,-9.997 C 16.839,20.306 16.299,13.521 13.888,8.645 12.675,6.22 11.081,4.269 9.383,2.943 7.687,1.607 5.972,0.848 4.548,0.412 1.654,-0.373 -0.001,-0.125 0,0"
             style="fill:#ffe6f0;fill-opacity:1;fill-rule:nonzero;stroke:none"
             id="path3577"
             inkscape:connector-curvature="0" /></g><g
           id="g3579"
           transform="translate(49.8159,269.6362)"><path
             d="M 0,0 C 0.196,0.109 1.18,-1.598 3.317,-4.367 4.394,-5.744 5.8,-7.354 7.59,-9.045 c 1.81,-1.667 4.044,-3.375 6.743,-4.859 2.705,-1.471 5.874,-2.69 9.402,-3.508 3.538,-0.774 7.423,-1.186 11.522,-1.092 8.207,0.135 17.188,2.022 26.235,5.075 9.051,3.304 18.505,5.57 27.185,4.411 4.305,-0.582 8.37,-2.132 11.442,-4.615 0.793,-0.584 1.467,-1.279 2.15,-1.933 0.617,-0.717 1.256,-1.393 1.76,-2.147 1.094,-1.449 1.874,-2.999 2.567,-4.482 1.285,-3.017 1.969,-5.892 2.322,-8.424 0.364,-2.531 0.473,-4.724 0.481,-6.509 -0.015,-0.893 -0.028,-1.686 -0.04,-2.373 -0.046,-0.686 -0.095,-1.264 -0.142,-1.731 -0.095,-0.935 -0.188,-1.422 -0.279,-1.42 -0.091,0.004 -0.175,0.496 -0.252,1.426 -0.03,0.463 -0.067,1.037 -0.111,1.715 -0.058,0.676 -0.125,1.455 -0.201,2.332 -0.164,1.748 -0.419,3.881 -0.907,6.304 -0.475,2.424 -1.262,5.135 -2.565,7.901 -0.699,1.353 -1.465,2.759 -2.5,4.04 -0.476,0.673 -1.075,1.26 -1.645,1.891 -0.632,0.566 -1.247,1.176 -1.97,1.678 -2.792,2.14 -6.442,3.461 -10.423,3.938 -3.99,0.492 -8.3,0.163 -12.672,-0.662 -2.186,-0.427 -4.4,-0.952 -6.619,-1.612 -2.234,-0.654 -4.406,-1.422 -6.739,-2.227 -9.237,-3.115 -18.499,-4.999 -27.055,-5.005 -4.271,-0.029 -8.346,0.482 -12.054,1.396 -3.702,0.956 -7.021,2.353 -9.818,4.016 -2.793,1.673 -5.06,3.58 -6.847,5.422 C 4.791,-8.232 3.458,-6.471 2.482,-4.965 1.518,-3.451 0.849,-2.232 0.474,-1.367 0.084,-0.51 -0.081,-0.043 0,0"
             style="fill:#ffe6f0;fill-opacity:1;fill-rule:nonzero;stroke:none"
             id="path3581"
             inkscape:connector-curvature="0" /></g><g
           id="g3583"
           transform="translate(51.0498,306.7456)"><path
             d="m 0,0 c -0.145,0.098 0.72,1.706 2.816,4.219 2.108,2.477 5.43,5.983 10.596,8.97 2.591,1.441 5.669,2.744 9.205,3.269 3.512,0.549 7.466,0.256 11.238,-1.125 0.962,-0.298 1.864,-0.762 2.805,-1.168 0.895,-0.49 1.828,-0.94 2.698,-1.52 1.784,-1.081 3.462,-2.461 4.994,-4.051 1.53,-1.596 2.816,-3.532 3.687,-5.69 0.875,-2.154 1.3,-4.532 1.239,-6.907 -0.128,-4.781 -2.054,-9.143 -4.615,-12.644 -2.59,-3.514 -5.877,-6.285 -9.463,-8.113 -1.796,-0.906 -3.67,-1.588 -5.575,-1.931 -1.911,-0.36 -3.82,-0.338 -5.564,-0.163 -3.536,0.347 -6.804,1.503 -9.287,3.346 -2.494,1.816 -4.149,4.329 -4.627,6.792 -0.526,2.471 0.196,4.719 1.226,6.096 1.047,1.398 2.22,2.086 3.013,2.44 0.802,0.358 1.262,0.427 1.291,0.356 0.042,-0.096 -0.349,-0.331 -1.025,-0.815 -0.671,-0.478 -1.643,-1.256 -2.423,-2.546 -0.764,-1.28 -1.208,-3.159 -0.646,-5.197 0.524,-2.032 2.024,-4.108 4.27,-5.606 2.234,-1.518 5.169,-2.462 8.399,-2.688 1.637,-0.115 3.277,-0.089 4.925,0.259 1.656,0.336 3.311,0.975 4.909,1.816 3.192,1.696 6.168,4.266 8.486,7.471 2.301,3.193 3.969,7.106 4.07,11.194 0.126,4.085 -1.503,7.953 -4.185,10.774 -1.34,1.409 -2.823,2.671 -4.452,3.683 -0.786,0.542 -1.641,0.964 -2.452,1.428 -0.85,0.378 -1.667,0.822 -2.531,1.102 C 29.63,14.359 26.12,14.697 22.915,14.292 19.694,13.908 16.798,12.807 14.297,11.548 9.303,8.934 5.858,5.738 3.571,3.523 1.287,1.273 0.154,-0.109 0,0"
             style="fill:#ffe6f0;fill-opacity:1;fill-rule:nonzero;stroke:none"
             id="path3585"
             inkscape:connector-curvature="0" /></g><g
           id="g3587"
           transform="translate(128.915,343.7622)"><path
             d="m 0,0 c 0.084,0.034 0.254,-0.183 0.502,-0.635 0.253,-0.451 0.595,-1.133 0.884,-2.073 0.597,-1.846 1.22,-4.767 0.592,-8.331 -0.55,-3.56 -2.513,-7.588 -5.769,-11.023 -3.245,-3.435 -7.727,-6.343 -12.999,-7.87 -2.639,-0.735 -5.369,-1.083 -8.036,-0.747 -1.325,0.177 -2.642,0.482 -3.846,1.068 -1.189,0.563 -2.262,1.237 -3.192,2.086 -1.875,1.663 -3.116,3.823 -3.643,5.96 -0.563,2.136 -0.478,4.227 -0.038,6.026 0.469,1.796 1.314,3.346 2.468,4.374 1.126,1.068 2.592,1.424 3.654,1.298 1.089,-0.119 1.772,-0.597 2.203,-0.886 0.407,-0.345 0.583,-0.556 0.532,-0.631 -0.052,-0.075 -0.329,-0.012 -0.783,0.163 -0.468,0.121 -1.144,0.385 -1.989,0.329 -0.831,-0.059 -1.801,-0.42 -2.582,-1.323 -0.799,-0.87 -1.396,-2.194 -1.682,-3.723 -0.261,-1.535 -0.229,-3.3 0.321,-5.035 0.52,-1.741 1.582,-3.419 3.13,-4.716 0.756,-0.659 1.686,-1.203 2.638,-1.628 0.935,-0.436 2.009,-0.664 3.114,-0.797 2.227,-0.252 4.641,0.057 7.016,0.72 4.757,1.374 8.935,3.986 11.971,7.025 3.054,3.044 4.968,6.547 5.685,9.707 0.793,3.16 0.51,5.879 0.238,7.711 -0.124,0.929 -0.3,1.639 -0.387,2.137 C -0.081,-0.316 -0.084,-0.034 0,0"
             style="fill:#ffe6f0;fill-opacity:1;fill-rule:nonzero;stroke:none"
             id="path3589"
             inkscape:connector-curvature="0" /></g><g
           id="g3591"
           transform="translate(86.7061,320.1895)"><path
             d="m 0,0 c -0.337,0.017 -0.44,3.504 1.187,8.822 0.833,2.64 2.123,5.746 4.285,8.818 2.115,3.074 5.394,5.988 9.528,7.624 2.074,0.879 4.457,1.116 6.615,0.727 1.084,-0.207 2.105,-0.577 3.049,-1.038 0.926,-0.496 1.778,-1.071 2.517,-1.736 2.923,-2.65 4.37,-6.405 3.563,-9.543 C 30.318,12.122 29.28,10.935 28.217,10.335 27.148,9.716 26.138,9.559 25.347,9.449 24.544,9.405 23.935,9.424 23.525,9.516 c -0.41,0.072 -0.619,0.153 -0.618,0.244 0.001,0.092 0.212,0.187 0.599,0.286 0.39,0.08 0.951,0.225 1.647,0.411 0.673,0.242 1.503,0.527 2.245,1.104 0.741,0.57 1.321,1.439 1.53,2.535 0.4,2.219 -0.877,5.244 -3.337,7.284 -0.613,0.513 -1.308,0.943 -2.044,1.316 -0.753,0.337 -1.549,0.607 -2.386,0.752 -1.677,0.255 -3.475,0.094 -5.211,-0.644 C 12.38,21.381 9.466,18.933 7.424,16.194 5.351,13.472 3.954,10.633 2.942,8.191 0.943,3.266 0.384,-0.048 0,0"
             style="fill:#ffe6f0;fill-opacity:1;fill-rule:nonzero;stroke:none"
             id="path3593"
             inkscape:connector-curvature="0" /></g><g
           id="g3595"
           transform="translate(154.7925,248.2012)"><path
             d="M 0,0 C -0.073,-0.053 -0.347,0.133 -0.794,0.531 -1.018,0.729 -1.285,0.98 -1.592,1.279 -1.744,1.429 -1.908,1.592 -2.083,1.765 -2.278,1.916 -2.486,2.074 -2.708,2.243 -3.152,2.57 -3.612,2.976 -4.159,3.35 -4.732,3.679 -5.354,4.037 -6.023,4.42 -6.75,4.677 -7.485,5.041 -8.317,5.276 c -0.852,0.169 -1.715,0.476 -2.689,0.509 -1.903,0.279 -4.053,0.073 -6.319,-0.268 -2.274,-0.389 -4.67,-1.091 -7.167,-1.924 -4.985,-1.748 -10.323,-4.197 -16.012,-6.691 -5.695,-2.47 -11.239,-4.752 -16.58,-6.045 -2.647,-0.712 -5.267,-1.046 -7.714,-1.265 -2.467,-0.08 -4.786,-0.026 -6.855,0.418 -4.164,0.793 -7.2,2.525 -9.038,3.924 -1.805,1.466 -2.633,2.441 -2.527,2.556 0.135,0.156 1.193,-0.552 3.092,-1.701 1.936,-1.084 4.885,-2.434 8.767,-2.937 1.929,-0.303 4.09,-0.243 6.386,-0.081 2.296,0.301 4.747,0.688 7.275,1.436 5.079,1.363 10.476,3.652 16.139,6.111 5.66,2.48 11.098,4.898 16.3,6.582 2.616,0.801 5.153,1.458 7.607,1.779 2.453,0.273 4.8,0.381 6.911,-0.049 1.064,-0.105 2.029,-0.5 2.951,-0.761 0.905,-0.328 1.701,-0.793 2.464,-1.149 0.7,-0.48 1.336,-0.942 1.918,-1.362 0.545,-0.466 0.986,-0.957 1.402,-1.366 0.203,-0.211 0.394,-0.409 0.574,-0.594 0.15,-0.211 0.29,-0.409 0.421,-0.592 C -0.754,1.437 -0.544,1.123 -0.382,0.865 -0.058,0.348 0.074,0.055 0,0"
             style="fill:#ffe6f0;fill-opacity:1;fill-rule:nonzero;stroke:none"
             id="path3597"
             inkscape:connector-curvature="0" /></g><g
           id="g3599"
           transform="translate(283.7305,355.5068)"><path
             d="m 0,0 c -0.018,0.187 0.309,0.386 0.824,0.646 0.512,0.27 1.211,0.666 1.707,1.331 0.24,0.339 0.428,0.746 0.559,1.224 0.117,0.487 0.158,1.053 0.14,1.668 -0.05,1.24 -0.388,2.671 -0.902,4.137 -1.047,2.947 -2.531,5.471 -3.685,7.2 -1.153,1.749 -2.079,2.672 -1.877,2.999 0.166,0.303 1.629,-0.174 3.296,-1.79 C 1.721,15.822 3.623,13.229 4.814,9.881 5.4,8.207 5.742,6.489 5.66,4.835 5.607,4.008 5.455,3.203 5.152,2.474 4.834,1.747 4.381,1.121 3.863,0.672 2.791,-0.213 1.709,-0.363 1.049,-0.355 0.369,-0.326 0.014,-0.174 0,0"
             style="fill:#8ccada;fill-opacity:1;fill-rule:nonzero;stroke:none"
             id="path3601"
             inkscape:connector-curvature="0" /></g><g
           id="g3603"
           transform="translate(297.5801,340.0151)"><path
             d="m 0,0 c -0.121,0.422 1.719,0.828 2.797,3.087 1.139,2.2 1.363,6 0.736,10.045 -0.625,4.061 -1.916,7.639 -3.244,9.912 -0.658,1.147 -1.324,1.959 -1.838,2.487 -0.129,0.128 -0.244,0.25 -0.346,0.361 -0.107,0.092 -0.197,0.179 -0.269,0.258 -0.145,0.158 -0.215,0.287 -0.184,0.372 0.03,0.086 0.16,0.125 0.395,0.115 0.117,-0.005 0.262,-0.023 0.43,-0.054 0.158,-0.048 0.337,-0.115 0.543,-0.196 0.802,-0.338 1.834,-1.102 2.792,-2.268 C 3.754,21.795 5.453,17.975 6.141,13.531 6.48,11.308 6.525,9.132 6.244,7.155 5.959,5.185 5.344,3.393 4.381,2.103 3.445,0.792 2.221,0.105 1.369,-0.08 0.951,-0.211 0.6,-0.188 0.371,-0.171 0.141,-0.147 0.018,-0.089 0,0"
             style="fill:#8ccada;fill-opacity:1;fill-rule:nonzero;stroke:none"
             id="path3605"
             inkscape:connector-curvature="0" /></g><g
           id="g3607"
           transform="translate(309.5195,328.103)"><path
             d="M 0,0 C 0.018,0.206 0.533,0.271 1.225,0.654 1.574,0.83 1.947,1.146 2.34,1.533 2.713,1.955 3.1,2.472 3.447,3.116 4.854,5.692 5.602,10.024 5.07,14.678 4.555,19.353 2.934,23.391 1.469,26.154 0.02,28.939 -1.152,30.573 -0.852,30.838 -0.615,31.059 1.086,29.845 3.055,27.134 5.029,24.46 7.123,20.133 7.691,14.965 8.271,9.827 7.162,4.964 5.012,2.101 4.477,1.388 3.873,0.817 3.279,0.397 2.658,0.002 2.066,-0.257 1.541,-0.323 0.494,-0.473 -0.027,-0.146 0,0"
             style="fill:#8ccada;fill-opacity:1;fill-rule:nonzero;stroke:none"
             id="path3609"
             inkscape:connector-curvature="0" /></g><g
           id="g3611"
           transform="translate(354.5703,337.6924)"><path
             d="m 0,0 c 0.018,-0.064 -0.09,-0.259 -0.52,-0.297 -0.21,0.004 -0.523,0.103 -0.736,0.35 -0.209,0.234 -0.357,0.537 -0.459,0.864 -0.383,1.312 -0.293,3.105 -0.017,5.247 0.14,1.067 0.349,2.239 0.568,3.445 0.193,1.221 0.4,2.525 0.619,3.897 0.443,2.76 0.961,5.817 1.701,9.009 1.41,6.402 3.869,12.062 6.699,15.499 0.719,0.86 1.465,1.591 2.272,2.101 0.787,0.517 1.686,0.779 2.412,0.692 0.732,-0.085 1.19,-0.418 1.434,-0.656 0.238,-0.257 0.31,-0.43 0.254,-0.499 -0.112,-0.185 -0.739,0.264 -1.682,0.128 C 11.617,39.657 10.436,38.592 9.354,36.903 8.281,35.223 7.145,32.999 6.225,30.456 5.25,27.934 4.434,25.02 3.725,21.917 3.004,18.812 2.42,15.808 1.844,13.062 1.537,11.683 1.246,10.374 0.973,9.147 0.66,7.95 0.367,6.835 0.1,5.816 -0.402,3.806 -0.732,2.145 -0.707,1.107 -0.68,0.578 -0.59,0.346 -0.422,0.226 -0.227,0.111 -0.018,0.102 0,0"
             style="fill:#ffbdd7;fill-opacity:1;fill-rule:nonzero;stroke:none"
             id="path3613"
             inkscape:connector-curvature="0" /></g><g
           id="g3615"
           transform="translate(378.877,171.9102)"><path
             d="m 0,0 c -0.26,-0.311 -1.52,0.434 -3.711,0.937 -2.195,0.514 -5.348,0.727 -8.894,0.524 -3.545,-0.197 -6.788,-0.627 -9.161,-0.861 -2.373,-0.248 -3.886,-0.295 -3.974,0.066 -0.084,0.346 1.277,1.035 3.601,1.762 2.327,0.709 5.627,1.457 9.395,1.668 3.76,0.218 7.295,-0.321 9.639,-1.397 C -0.734,1.619 0.227,0.225 0,0"
             style="fill:#ffbdd7;fill-opacity:1;fill-rule:nonzero;stroke:none"
             id="path3617"
             inkscape:connector-curvature="0" /></g><g
           id="g3619"
           transform="translate(223.269,132.7129)"><path
             d="m 0,0 c -0.175,0.047 -0.229,0.633 -0.178,1.631 0.092,0.99 0.117,2.426 0.152,4.17 -0.011,3.498 -0.558,8.301 -2.09,13.449 -0.727,2.58 -1.582,5.008 -2.401,7.213 -0.829,2.213 -1.576,4.207 -2.203,5.883 -1.258,3.375 -1.822,5.576 -1.484,5.711 0.339,0.132 1.493,-1.77 3.187,-4.953 0.837,-1.6 1.804,-3.526 2.756,-5.737 0.961,-2.203 1.918,-4.689 2.68,-7.39 C 2.025,14.594 2.321,9.354 1.835,5.684 1.555,3.848 1.234,2.385 0.827,1.424 0.46,0.455 0.176,-0.047 0,0"
             style="fill:#ffbdd7;fill-opacity:1;fill-rule:nonzero;stroke:none"
             id="path3621"
             inkscape:connector-curvature="0" /></g><g
           id="g3623"
           transform="translate(371.3145,349.9834)"><path
             d="m 0,0 c 0.732,-0.251 -0.156,-3.928 -2.648,-7.67 -1.243,-1.872 -2.663,-3.419 -3.965,-4.299 -0.348,-0.209 -0.647,-0.395 -0.946,-0.522 -0.314,-0.119 -0.574,-0.211 -0.808,-0.248 -0.504,-0.045 -0.762,0.039 -0.811,0.213 -0.049,0.174 0.1,0.431 0.334,0.696 0.115,0.152 0.256,0.349 0.422,0.533 0.162,0.201 0.34,0.458 0.545,0.7 0.801,1.065 1.861,2.622 3.031,4.383 C -2.492,-2.675 -0.646,0.227 0,0"
             style="fill:#ffbdd7;fill-opacity:1;fill-rule:nonzero;stroke:none"
             id="path3625"
             inkscape:connector-curvature="0" /></g><g
           id="g3627"
           transform="translate(271.375,324.3896)"><path
             d="m 0,0 c -0.338,0.022 -0.592,1.477 -0.178,3.766 0.186,1.147 0.602,2.466 1.174,3.895 0.625,1.406 1.44,2.913 2.559,4.341 1.136,1.414 2.474,2.591 3.865,3.424 0.734,0.363 1.406,0.739 2.127,0.909 0.353,0.093 0.678,0.224 1.016,0.263 0.335,0.035 0.658,0.069 0.964,0.102 0.608,0.098 1.168,-0.04 1.643,-0.078 0.478,-0.035 0.867,-0.191 1.18,-0.319 0.625,-0.257 0.923,-0.48 0.88,-0.656 C 15.188,15.47 14.809,15.352 14.211,15.286 13.91,15.253 13.555,15.255 13.15,15.147 12.75,15.045 12.291,15.056 11.82,14.858 11.584,14.786 11.338,14.71 11.08,14.63 10.824,14.558 10.58,14.398 10.316,14.288 9.779,14.087 9.273,13.702 8.719,13.374 7.664,12.593 6.605,11.583 5.621,10.364 4.654,9.128 3.869,7.827 3.189,6.615 2.561,5.377 2.002,4.238 1.613,3.245 0.791,1.276 0.387,-0.034 0,0"
             style="fill:#ffe6f0;fill-opacity:1;fill-rule:nonzero;stroke:none"
             id="path3629"
             inkscape:connector-curvature="0" /></g><g
           id="g3631"
           transform="translate(217.3408,291.3325)"><path
             d="m 0,0 c -0.147,-0.106 -0.518,0.077 -1.047,0.481 -0.504,0.431 -1.261,0.989 -2.151,1.667 -1.838,1.297 -4.583,2.571 -7.981,2.76 -3.388,0.199 -6.605,-0.301 -8.966,-0.521 -2.365,-0.242 -3.886,-0.242 -3.959,0.117 -0.071,0.354 1.287,0.994 3.591,1.711 2.299,0.685 5.614,1.542 9.514,1.323 1.942,-0.109 3.807,-0.622 5.356,-1.36 1.579,-0.705 2.76,-1.742 3.666,-2.622 C -1.132,2.601 -0.532,1.785 -0.252,1.13 0.056,0.497 0.148,0.107 0,0"
             style="fill:#ffe6f0;fill-opacity:1;fill-rule:nonzero;stroke:none"
             id="path3633"
             inkscape:connector-curvature="0" /></g><g
           id="g3635"
           transform="translate(210.8877,298.1909)"><path
             d="m 0,0 c -0.429,-0.628 -2.649,0.367 -5.152,1.14 -1.259,0.372 -2.32,0.54 -3.142,0.563 -0.817,0.039 -1.455,-0.028 -1.668,0.29 -0.196,0.272 0.141,0.984 1.211,1.518 0.528,0.273 1.217,0.426 1.978,0.472 0.755,0.022 1.572,-0.083 2.37,-0.316 1.589,-0.485 2.801,-1.3 3.55,-2.019 C -0.101,0.924 0.205,0.296 0,0"
             style="fill:#ffe6f0;fill-opacity:1;fill-rule:nonzero;stroke:none"
             id="path3637"
             inkscape:connector-curvature="0" /></g><g
           id="g3639"
           transform="translate(102.1479,350.5811)"><path
             d="m 0,0 c 0.107,-0.378 -1.258,-1.037 -3.258,-2.266 -1.01,-0.598 -2.145,-1.405 -3.366,-2.333 -1.196,-0.963 -2.455,-2.084 -3.676,-3.367 -4.933,-5.162 -6.832,-10.882 -7.579,-10.658 -0.327,0.086 -0.292,1.672 0.515,4.073 0.798,2.389 2.475,5.552 5.145,8.393 1.339,1.409 2.781,2.59 4.177,3.532 1.42,0.907 2.769,1.612 3.969,2.037 C -1.682,0.294 -0.083,0.322 0,0"
             style="fill:#ffe6f0;fill-opacity:1;fill-rule:nonzero;stroke:none"
             id="path3641"
             inkscape:connector-curvature="0" /></g><g
           id="g3643"
           transform="translate(89.7803,349.2529)"><path
             d="m 0,0 c 0.486,-0.582 -1.247,-2.619 -3.205,-4.924 -0.971,-1.163 -1.765,-2.204 -2.296,-3.002 -0.545,-0.785 -0.887,-1.369 -1.266,-1.349 -0.345,0.009 -0.673,0.772 -0.484,1.991 0.169,1.214 0.909,2.725 2.021,4.048 C -2.968,-0.592 -0.433,0.537 0,0"
             style="fill:#ffe6f0;fill-opacity:1;fill-rule:nonzero;stroke:none"
             id="path3645"
             inkscape:connector-curvature="0" /></g><g
           id="g3647"
           transform="translate(85.5537,347.7363)"><path
             d="m 0,0 c 0.143,-0.338 -0.213,-0.863 -0.824,-1.443 -0.584,-0.625 -1.399,-1.32 -2.18,-2.179 -1.534,-1.7 -2.651,-3.542 -3.379,-3.3 -0.338,0.119 -0.463,0.75 -0.306,1.709 0.183,0.942 0.712,2.228 1.737,3.369 1.036,1.137 2.297,1.762 3.221,2.03 C -0.777,0.409 -0.14,0.332 0,0"
             style="fill:#ffe6f0;fill-opacity:1;fill-rule:nonzero;stroke:none"
             id="path3649"
             inkscape:connector-curvature="0" /></g><g
           id="g3651"
           transform="translate(83.6196,294.7529)"><path
             d="m 0,0 c -0.386,0.04 -0.517,1.377 -1.144,3.379 -0.62,1.993 -1.708,4.715 -3.549,7.235 -0.915,1.255 -1.936,2.306 -2.971,3.074 -1.038,0.758 -2.083,1.246 -3.024,1.463 -1.889,0.454 -3.268,0.108 -3.396,0.497 -0.062,0.165 0.199,0.455 0.797,0.773 0.596,0.31 1.569,0.604 2.824,0.581 1.254,-0.009 2.743,-0.447 4.14,-1.288 1.396,-0.847 2.69,-2.079 3.757,-3.541 C -0.426,9.235 0.489,6.043 0.688,3.724 0.89,1.375 0.334,-0.051 0,0"
             style="fill:#ffe6f0;fill-opacity:1;fill-rule:nonzero;stroke:none"
             id="path3653"
             inkscape:connector-curvature="0" /></g><g
           id="g3655"
           transform="translate(88.1777,302.6816)"><path
             d="m 0,0 c -0.375,-0.022 -0.721,0.484 -1.204,1.17 -0.478,0.693 -1.12,1.606 -1.938,2.497 -0.821,0.889 -1.631,1.548 -2.284,1.967 -0.639,0.435 -1.187,0.684 -1.23,1.062 -0.052,0.335 0.582,0.802 1.743,0.73 C -3.763,7.373 -2.301,6.66 -1.202,5.453 -0.094,4.249 0.465,2.833 0.564,1.763 0.67,0.68 0.348,0.015 0,0"
             style="fill:#ffe6f0;fill-opacity:1;fill-rule:nonzero;stroke:none"
             id="path3657"
             inkscape:connector-curvature="0" /></g><g
           id="g3659"
           transform="translate(93.6777,302.8535)"><path
             d="M 0,0 C -0.727,-0.225 -1.979,2.18 -3.621,4.776 -4.477,6.052 -5.297,7.111 -5.951,7.897 -6.609,8.649 -7.06,9.232 -6.899,9.578 -6.761,9.893 -5.967,9.894 -4.835,9.391 -3.724,8.867 -2.417,7.729 -1.412,6.216 0.527,3.119 0.661,0.18 0,0"
             style="fill:#ffe6f0;fill-opacity:1;fill-rule:nonzero;stroke:none"
             id="path3661"
             inkscape:connector-curvature="0" /></g><g
           id="g3663"
           transform="translate(158.4829,260.4106)"><path
             d="m 0,0 c -0.181,-0.075 -0.565,0.411 -1.213,1.214 -0.669,0.795 -1.709,1.855 -3.213,2.875 -1.502,1.019 -3.48,1.972 -5.803,2.672 -2.32,0.682 -4.998,1.138 -7.768,1.099 -0.703,0.004 -1.35,-0.064 -1.994,-0.113 -0.626,-0.122 -1.261,-0.262 -1.914,-0.435 -1.288,-0.345 -2.543,-0.751 -3.753,-1.137 -2.418,-0.785 -4.681,-1.46 -6.654,-1.791 -1.968,-0.351 -3.632,-0.34 -4.746,-0.149 -1.118,0.178 -1.689,0.479 -1.661,0.637 0.069,0.409 2.414,0.19 5.985,1.326 1.792,0.535 3.883,1.353 6.275,2.271 1.199,0.452 2.477,0.923 3.861,1.331 0.685,0.201 1.425,0.383 2.206,0.539 0.784,0.082 1.585,0.162 2.356,0.158 6.243,0.05 11.676,-2.219 14.753,-4.935 C -1.738,4.208 -0.791,2.798 -0.339,1.753 0.093,0.692 0.155,0.061 0,0"
             style="fill:#ffe6f0;fill-opacity:1;fill-rule:nonzero;stroke:none"
             id="path3665"
             inkscape:connector-curvature="0" /></g><g
           id="g3667"
           transform="translate(148.4834,272.3403)"><path
             d="m 0,0 c -0.218,-0.312 -0.881,-0.218 -1.788,-0.169 -0.91,0.066 -2.123,0.051 -3.56,-0.08 -1.434,-0.134 -2.802,-0.301 -3.843,-0.307 -1.041,-0.009 -1.745,0.147 -1.832,0.5 -0.088,0.354 0.438,0.832 1.392,1.313 0.955,0.472 2.359,0.961 4.05,1.119 1.686,0.164 3.347,-0.154 4.38,-0.775 C -0.155,0.993 0.203,0.275 0,0"
             style="fill:#ffe6f0;fill-opacity:1;fill-rule:nonzero;stroke:none"
             id="path3669"
             inkscape:connector-curvature="0" /></g><g
           id="g3671"
           transform="translate(143.5581,275.6987)"><path
             d="m 0,0 c -0.159,-0.727 -2.523,-0.832 -5.317,-1.007 -1.398,-0.108 -2.645,-0.192 -3.586,-0.233 -0.929,-0.045 -1.598,0.004 -1.76,0.344 -0.153,0.314 0.281,0.891 1.22,1.441 0.936,0.539 2.364,0.96 3.955,1.08 C -2.278,1.819 0.166,0.693 0,0"
             style="fill:#ffe6f0;fill-opacity:1;fill-rule:nonzero;stroke:none"
             id="path3673"
             inkscape:connector-curvature="0" /></g><g
           id="g3675"
           transform="translate(114.9409,225.9883)"><path
             d="m 0,0 c 0.189,-0.273 -0.833,-1.445 -2.965,-2.744 -2.117,-1.276 -5.463,-2.586 -9.359,-2.699 -1.938,-0.047 -3.78,0.203 -5.397,0.605 -1.616,0.418 -3.002,1 -4.1,1.588 -2.197,1.193 -3.265,2.326 -3.087,2.607 0.204,0.336 1.598,-0.211 3.804,-0.886 1.105,-0.332 2.419,-0.684 3.893,-0.932 1.474,-0.236 3.101,-0.387 4.812,-0.346 3.426,0.1 6.46,0.977 8.635,1.748 C -1.59,-0.273 -0.218,0.326 0,0"
             style="fill:#ffe6f0;fill-opacity:1;fill-rule:nonzero;stroke:none"
             id="path3677"
             inkscape:connector-curvature="0" /></g><g
           id="g3679"
           transform="translate(109.438,229.2969)"><path
             d="m 0,0 c 0.186,-0.295 -0.373,-1.023 -1.556,-1.867 -1.196,-0.797 -3.077,-1.635 -5.316,-1.916 -2.246,-0.237 -4.294,0.168 -5.636,0.728 -1.336,0.61 -2.013,1.237 -1.879,1.557 0.142,0.352 1.035,0.357 2.314,0.256 1.299,-0.055 3.01,-0.113 4.899,0.08 1.884,0.24 3.564,0.682 4.841,0.99 C -1.08,0.176 -0.197,0.322 0,0"
             style="fill:#ffe6f0;fill-opacity:1;fill-rule:nonzero;stroke:none"
             id="path3681"
             inkscape:connector-curvature="0" /></g><g
           id="g3683"
           transform="translate(101.9175,232.4375)"><path
             d="m 0,0 c 0.157,-0.326 -0.093,-0.775 -0.681,-1.256 -0.576,-0.525 -1.522,-0.859 -2.589,-1.099 -2.132,-0.329 -3.796,0.179 -3.863,0.886 -0.07,0.74 1.545,1.424 3.411,1.711 0.902,0.211 1.765,0.215 2.398,0.252 C -0.674,0.486 -0.158,0.328 0,0"
             style="fill:#ffe6f0;fill-opacity:1;fill-rule:nonzero;stroke:none"
             id="path3685"
             inkscape:connector-curvature="0" /></g><g
           id="g3687"
           transform="translate(251.8242,282.4766)"><path
             d="m 0,0 c -0.395,-0.097 -0.958,1.241 -2.15,3.084 -1.201,1.812 -3.168,4.173 -6.033,5.553 -1.427,0.673 -2.889,0.989 -4.235,1.038 -0.339,-0.002 -0.67,-0.004 -0.991,-0.005 -0.32,-0.047 -0.63,-0.092 -0.93,-0.136 -0.153,-0.019 -0.302,-0.039 -0.45,-0.058 -0.142,-0.041 -0.282,-0.081 -0.419,-0.121 -0.28,-0.076 -0.548,-0.149 -0.804,-0.219 -0.999,-0.365 -1.842,-0.698 -2.41,-0.988 -0.589,-0.258 -0.987,-0.347 -1.108,-0.211 -0.121,0.135 0.048,0.487 0.485,1.027 0.413,0.567 1.19,1.209 2.268,1.872 0.285,0.14 0.584,0.287 0.896,0.439 0.159,0.074 0.321,0.148 0.486,0.225 0.174,0.051 0.353,0.104 0.534,0.157 0.363,0.104 0.742,0.216 1.138,0.31 0.405,0.044 0.822,0.09 1.249,0.137 1.717,0.098 3.644,-0.24 5.428,-1.087 3.593,-1.741 5.658,-4.82 6.554,-7.08 C -0.059,2.778 0.182,1.814 0.199,1.118 0.242,0.429 0.178,0.042 0,0"
             style="fill:#ffe6f0;fill-opacity:1;fill-rule:nonzero;stroke:none"
             id="path3689"
             inkscape:connector-curvature="0" /></g><g
           id="g3691"
           transform="translate(245.8403,288.0684)"><path
             d="m 0,0 c -0.266,-0.264 -0.798,-0.213 -1.399,-0.088 -0.627,0.109 -1.374,0.248 -2.268,0.384 -1.791,0.222 -3.55,0.38 -3.707,1.115 -0.165,0.667 1.539,1.778 4.061,1.498 1.249,-0.175 2.34,-0.771 2.909,-1.421 C 0.155,0.817 0.252,0.242 0,0"
             style="fill:#ffe6f0;fill-opacity:1;fill-rule:nonzero;stroke:none"
             id="path3693"
             inkscape:connector-curvature="0" /></g><g
           id="g3695"
           transform="translate(243.7778,284.9912)"><path
             d="m 0,0 c -0.306,-0.696 -1.571,-0.776 -2.789,-0.712 -0.314,-0.029 -0.611,-0.012 -0.898,0.039 -0.289,0.078 -0.555,0.033 -0.803,0.109 -0.492,0.112 -0.903,0.342 -1.034,0.681 -0.132,0.339 0.067,0.739 0.564,1.123 0.252,0.171 0.55,0.423 0.946,0.495 0.389,0.097 0.834,0.164 1.299,0.188 C -1.793,1.831 -0.97,1.584 -0.524,1.145 -0.052,0.745 0.137,0.337 0,0"
             style="fill:#ffe6f0;fill-opacity:1;fill-rule:nonzero;stroke:none"
             id="path3697"
             inkscape:connector-curvature="0" /></g><g
           id="g3699"
           transform="translate(330.7871,361.6689)"><path
             d="m 0,0 c -0.281,-0.228 -1.355,0.756 -2.016,2.766 -0.679,1.982 -1.068,4.866 -0.607,8.034 0.242,1.58 0.676,3.083 1.352,4.37 0.648,1.291 1.597,2.346 2.585,2.963 0.995,0.621 1.973,0.765 2.59,0.694 C 4.529,18.766 4.842,18.573 4.84,18.403 4.857,17.988 3.582,17.84 2.451,16.656 1.299,15.509 0.381,13.191 -0.014,10.411 -0.424,7.633 -0.359,5.016 -0.195,3.168 -0.053,1.303 0.301,0.22 0,0"
             style="fill:#ffe6f0;fill-opacity:1;fill-rule:nonzero;stroke:none"
             id="path3701"
             inkscape:connector-curvature="0" /></g><g
           id="g3703"
           transform="translate(334.4336,366.6191)"><path
             d="m 0,0 c -0.264,-0.222 -0.922,0.011 -1.477,0.855 -0.562,0.832 -0.853,2.17 -0.757,3.519 0.22,2.717 1.416,4.486 2.086,4.321 C 0.59,8.523 0.564,6.43 0.396,4.207 0.324,3.089 0.283,2.162 0.285,1.469 0.268,0.777 0.295,0.235 0,0"
             style="fill:#ffe6f0;fill-opacity:1;fill-rule:nonzero;stroke:none"
             id="path3705"
             inkscape:connector-curvature="0" /></g><g
           id="g3707"
           transform="translate(321.3008,360.582)"><path
             d="m 0,0 c -0.336,-0.101 -0.893,0.599 -1.408,1.881 -0.51,1.28 -0.93,3.149 -0.985,5.265 -0.005,2.119 0.379,4.065 1.014,5.357 0.127,0.328 0.297,0.608 0.477,0.842 0.17,0.235 0.33,0.427 0.474,0.575 0.289,0.294 0.52,0.406 0.682,0.324 C 0.416,14.161 0.496,13.896 0.512,13.508 0.518,13.313 0.51,13.089 0.484,12.84 0.449,12.595 0.416,12.318 0.416,11.998 0.297,10.764 0.244,9.079 0.242,7.187 0.32,3.393 0.723,0.229 0,0"
             style="fill:#ffe6f0;fill-opacity:1;fill-rule:nonzero;stroke:none"
             id="path3709"
             inkscape:connector-curvature="0" /></g><g
           id="g3711"
           transform="translate(307.4902,362.6152)"><path
             d="m 0,0 c -0.348,0.068 -0.564,0.675 -0.521,1.625 0.046,0.944 0.406,2.198 1.085,3.431 0.698,1.221 1.573,2.168 2.329,2.712 0.767,0.54 1.384,0.699 1.64,0.449 C 5.049,7.679 4.047,5.876 2.863,3.765 2.279,2.697 1.725,1.751 1.254,1.056 0.791,0.365 0.365,-0.074 0,0"
             style="fill:#ffe6f0;fill-opacity:1;fill-rule:nonzero;stroke:none"
             id="path3713"
             inkscape:connector-curvature="0" /></g><g
           id="g3715"
           transform="translate(302.2539,362.7549)"><path
             d="m 0,0 c -0.6,0.412 -0.193,1.95 0.91,3.433 1.057,1.424 2.403,2.243 3,1.83 C 4.512,4.85 4.105,3.312 3.002,1.829 1.945,0.405 0.6,-0.414 0,0"
             style="fill:#ffe6f0;fill-opacity:1;fill-rule:nonzero;stroke:none"
             id="path3717"
             inkscape:connector-curvature="0" /></g><g
           id="g3719"
           transform="translate(432.623,258.4888)"><path
             d="m 0,0 c -0.182,0.011 -0.35,0.489 -0.496,1.326 -0.082,0.417 -0.115,0.929 -0.225,1.511 -0.117,0.581 -0.234,1.238 -0.349,1.959 -0.576,2.87 -1.981,6.592 -5.01,9.795 -3.031,3.191 -6.471,5.65 -8.74,7.696 -2.307,2.018 -3.559,3.488 -3.332,3.758 0.24,0.288 1.882,-0.649 4.449,-2.265 1.283,-0.818 2.805,-1.794 4.457,-2.997 1.642,-1.206 3.437,-2.616 5.103,-4.405 1.668,-1.786 2.948,-3.847 3.721,-5.849 C 0.016,9.542 0.215,8.54 0.449,7.622 0.621,6.694 0.699,5.819 0.777,5.03 0.783,4.237 0.773,3.522 0.752,2.899 0.723,2.276 0.605,1.746 0.531,1.314 0.361,0.451 0.182,-0.011 0,0"
             style="fill:#ffe6f0;fill-opacity:1;fill-rule:nonzero;stroke:none"
             id="path3721"
             inkscape:connector-curvature="0" /></g><g
           id="g3723"
           transform="translate(431.8418,274.6763)"><path
             d="M 0,0 C -0.381,0.003 -0.674,0.606 -1.162,1.347 -1.385,1.727 -1.719,2.133 -2.066,2.581 -2.445,3.017 -2.885,3.479 -3.387,3.952 -5.42,5.833 -7.57,7.088 -7.33,7.8 c 0.115,0.337 0.85,0.45 1.937,0.188 1.081,-0.261 2.508,-0.915 3.801,-2.104 0.639,-0.6 1.17,-1.28 1.553,-1.965 C 0.32,3.211 0.566,2.529 0.615,1.915 0.742,0.688 0.338,-0.014 0,0"
             style="fill:#ffe6f0;fill-opacity:1;fill-rule:nonzero;stroke:none"
             id="path3725"
             inkscape:connector-curvature="0" /></g><g
           id="g3727"
           transform="translate(431.8145,278.4468)"><path
             d="M 0,0 C -0.682,-0.28 -1.705,0.647 -2.443,1.945 -3.195,3.21 -3.543,4.422 -3.027,4.969 -2.545,5.492 -1.07,4.799 -0.17,3.281 0.689,1.77 0.664,0.271 0,0"
             style="fill:#ffe6f0;fill-opacity:1;fill-rule:nonzero;stroke:none"
             id="path3729"
             inkscape:connector-curvature="0" /></g><g
           id="g3731"
           transform="translate(434.2656,280.394)"><path
             d="m 0,0 c -0.42,-0.005 -0.633,1.408 -1.678,3.243 -0.478,0.936 -1.291,1.924 -2.226,2.965 -0.985,1.016 -2.19,2.025 -3.539,2.997 -1.368,0.952 -2.756,1.75 -4.043,2.444 -1.307,0.654 -2.502,1.231 -3.535,1.65 -2.051,0.876 -3.405,1.316 -3.364,1.699 0.03,0.34 1.545,0.553 3.906,0.085 2.352,-0.449 5.508,-1.608 8.551,-3.721 C -4.424,10.282 -3.1,9.074 -2.07,7.801 -1.08,6.496 -0.307,5.202 0.035,3.978 0.797,1.542 0.297,-0.033 0,0"
             style="fill:#ffe6f0;fill-opacity:1;fill-rule:nonzero;stroke:none"
             id="path3733"
             inkscape:connector-curvature="0" /></g><g
           id="g3735"
           transform="translate(427.7227,292.6138)"><path
             d="M 0,0 C -0.605,-0.444 -2.178,0.829 -3.861,2.208 -4.723,2.866 -5.459,3.41 -6.049,3.814 -6.625,4.198 -7.088,4.539 -7.088,4.918 -7.098,5.261 -6.539,5.603 -5.557,5.612 -4.58,5.606 -3.311,5.12 -2.223,4.273 -0.094,2.507 0.568,0.398 0,0"
             style="fill:#ffe6f0;fill-opacity:1;fill-rule:nonzero;stroke:none"
             id="path3737"
             inkscape:connector-curvature="0" /></g><g
           id="g3739"
           transform="translate(407.543,197.7559)"><path
             d="m 0,0 c -0.166,0.123 0.809,1.691 2.453,4.525 1.539,2.885 3.617,7.194 4.764,12.887 0.131,0.713 0.314,1.432 0.412,2.182 0.078,0.754 0.158,1.525 0.24,2.31 0.041,0.393 0.082,0.789 0.125,1.19 0.02,0.402 0.014,0.808 0.024,1.218 0.011,0.821 0.025,1.657 0.037,2.508 -0.024,0.85 -0.112,1.713 -0.162,2.59 -0.032,0.44 -0.061,0.881 -0.092,1.326 -0.039,0.446 -0.125,0.889 -0.186,1.338 -0.135,0.899 -0.269,1.809 -0.406,2.733 -0.203,0.912 -0.41,1.838 -0.617,2.775 -1.76,7.479 -5.211,15.341 -9.705,23.06 -4.571,7.69 -9.532,14.889 -12.783,22.178 -0.879,1.786 -1.532,3.628 -2.206,5.395 -0.367,0.869 -0.576,1.799 -0.849,2.68 -0.254,0.888 -0.528,1.761 -0.746,2.622 -0.631,3.454 -1.229,6.671 -1.678,9.602 -0.479,2.931 -0.885,5.589 -1.168,7.935 -0.285,2.346 -0.596,4.351 -0.682,6.023 -0.244,3.328 -0.291,5.164 -0.111,5.179 0.182,0.015 0.576,-1.79 1.129,-5.045 0.24,-1.63 0.699,-3.613 1.119,-5.923 0.42,-2.311 0.953,-4.935 1.549,-7.834 0.564,-2.911 1.26,-6.058 1.971,-9.445 0.236,-0.82 0.517,-1.634 0.777,-2.471 0.283,-0.831 0.49,-1.692 0.867,-2.529 0.69,-1.687 1.344,-3.442 2.229,-5.161 3.263,-7.007 8.187,-14.028 12.857,-21.874 4.598,-7.897 8.094,-16.025 9.797,-23.851 0.199,-0.98 0.396,-1.949 0.59,-2.904 0.125,-0.967 0.246,-1.924 0.367,-2.865 0.053,-0.471 0.131,-0.936 0.162,-1.403 0.022,-0.469 0.043,-0.931 0.065,-1.392 0.033,-0.922 0.097,-1.827 0.099,-2.719 -0.039,-0.891 -0.076,-1.768 -0.115,-2.629 -0.022,-0.43 -0.031,-0.856 -0.064,-1.275 C 10.004,22.516 9.947,22.102 9.891,21.689 9.777,20.869 9.664,20.066 9.555,19.279 9.424,18.498 9.205,17.748 9.039,17.01 7.598,11.102 5.174,6.773 3.328,3.99 1.377,1.26 0.123,-0.098 0,0"
             style="fill:#ffe6f0;fill-opacity:1;fill-rule:nonzero;stroke:none"
             id="path3741"
             inkscape:connector-curvature="0" /></g><g
           id="g3743"
           transform="translate(94.9019,271.0308)"><path
             d="m 0,0 c 0.055,-0.301 -3.314,-1.369 -9.021,-1.781 -2.849,-0.156 -6.294,-0.133 -10.071,0.586 -3.753,0.705 -7.911,2.15 -11.511,4.992 -3.607,2.797 -6.032,6.86 -6.613,10.841 -0.617,3.982 0.306,7.646 1.757,10.215 1.418,2.62 3.184,4.282 4.478,5.236 0.628,0.51 1.198,0.792 1.575,0.988 0.383,0.188 0.605,0.249 0.658,0.175 0.123,-0.169 -0.518,-0.776 -1.541,-1.92 -1.024,-1.131 -2.436,-2.859 -3.495,-5.298 -1.1,-2.401 -1.682,-5.605 -1.041,-8.968 0.623,-3.366 2.704,-6.743 5.862,-9.204 3.148,-2.492 6.888,-3.899 10.371,-4.679 3.498,-0.799 6.778,-1.017 9.533,-1.101 C -3.532,0.01 -0.062,0.414 0,0"
             style="fill:#ffe6f0;fill-opacity:1;fill-rule:nonzero;stroke:none"
             id="path3745"
             inkscape:connector-curvature="0" /></g><g
           id="g3747"><g
             id="g3749" /><g
             id="g3755"><g
               clip-path="url(#clipPath3751)"
               id="g3757"
               style="opacity:0.30000299"><g
                 transform="translate(337.584,260.0796)"
                 id="g3759"><path
                   d="m 0,0 c -2.742,-2.781 -11.506,-8.094 -20.992,-12.412 -3.344,-4.869 -8.274,-8.07 -14.367,-10.064 19.502,1.715 37.296,11.197 52.959,30.63 C 6.986,3.199 3.744,3.797 0,0"
                   style="fill:#ffbdd7;fill-opacity:1;fill-rule:nonzero;stroke:none"
                   id="path3761"
                   inkscape:connector-curvature="0" /></g></g></g></g><g
           id="g3763"><g
             id="g3765" /><g
             id="g3771"><g
               clip-path="url(#clipPath3767)"
               id="g3773"
               style="opacity:0.30000299"><g
                 transform="translate(367.7754,343.2876)"
                 id="g3775"><path
                   d="m 0,0 c -2.176,-3.35 -3.947,-5.252 -3.947,-5.252 4.49,-7.876 17.183,-31.332 22.213,-56.42 C 15.48,-37.025 9.238,-14.416 0,0"
                   style="fill:#ffbdd7;fill-opacity:1;fill-rule:nonzero;stroke:none"
                   id="path3777"
                   inkscape:connector-curvature="0" /></g></g></g></g><g
           id="g3779"
           transform="translate(347.3965,145.7891)"><path
             d="m 0,0 c -0.111,-0.146 -0.455,-0.127 -0.936,-0.012 -0.515,0.088 -1.205,0.26 -2.101,0.432 -1.775,0.365 -4.293,0.803 -7.09,1.435 -2.795,0.633 -5.328,1.403 -7.088,2.194 -1.767,0.789 -2.738,1.556 -2.603,1.881 0.144,0.347 1.318,0.211 3.144,-0.096 1.83,-0.314 4.342,-0.775 7.135,-1.408 C -6.75,3.795 -4.205,3.051 -2.43,2.182 -1.543,1.762 -0.857,1.283 -0.439,0.887 -0.029,0.447 0.109,0.143 0,0"
             style="fill:#ffbdd7;fill-opacity:1;fill-rule:nonzero;stroke:none"
             id="path3781"
             inkscape:connector-curvature="0" /></g><g
           id="g3783"><g
             id="g3785" /><g
             id="g3791"><g
               clip-path="url(#clipPath3787)"
               id="g3793"
               style="opacity:0.30000299"><g
                 transform="translate(336.0996,149.959)"
                 id="g3795"><path
                   d="m 0,0 c -0.648,-0.309 -1.299,-0.609 -1.947,-0.902 13.572,-1.854 20.15,-3.545 14.064,-15.494 -7.724,-15.161 -27.094,-33.333 -26.055,-42.243 0.182,-1.556 0.627,-3.232 1.247,-4.904 4.402,15.465 27.39,42.182 31.482,50.609 C 23.49,-3.252 12.107,-2.467 0,0"
                   style="fill:#ffbdd7;fill-opacity:1;fill-rule:nonzero;stroke:none"
                   id="path3797"
                   inkscape:connector-curvature="0" /></g></g></g></g><g
           id="g3799"><g
             id="g3801" /><g
             id="g3807"><g
               clip-path="url(#clipPath3803)"
               id="g3809"
               style="opacity:0.30000299"><g
                 transform="translate(219.3418,161.332)"
                 id="g3811"><path
                   d="m 0,0 c 15.42,-69.52 -45.995,-32.887 -48.01,-36.539 -5.002,-9.065 -2.838,-49.592 0.605,-66.879 2.181,-0.846 3.572,0.08 2.898,4.482 -1.931,12.61 -6.504,60.114 1.568,57.309 8.072,-2.805 55.426,-24.076 46.116,31.447 35.698,-25.383 84.106,-27.234 122.161,-2.867 -2.664,0.561 -5.6,1.067 -8.58,1.674 C 71.547,-32.877 23.358,-18.932 0,0"
                   style="fill:#ffbdd7;fill-opacity:1;fill-rule:nonzero;stroke:none"
                   id="path3813"
                   inkscape:connector-curvature="0" /></g></g></g></g><g
           id="g3815"
           transform="translate(277.6055,372.8721)"><path
             d="m 0,0 c -0.271,-0.258 -0.77,-0.218 -1.354,-0.088 -0.591,0.136 -1.335,0.343 -2.175,0.647 -1.694,0.569 -3.194,1.344 -3.078,2.078 0.103,0.698 1.843,1.107 3.943,0.413 1.039,-0.37 1.92,-0.979 2.387,-1.615 C 0.191,0.796 0.256,0.24 0,0"
             style="fill:#ffffff;fill-opacity:1;fill-rule:nonzero;stroke:none"
             id="path3817"
             inkscape:connector-curvature="0" /></g><g
           id="g3819"
           transform="translate(281.8809,370.3301)"><path
             d="m 0,0 c -0.35,-0.636 -1.129,-0.892 -1.734,-0.568 -0.705,0.437 -0.899,1.31 -0.405,1.839 0.502,0.538 1.221,0.767 1.678,0.469 C 0.145,1.417 0.352,0.639 0,0"
             style="fill:#ffffff;fill-opacity:1;fill-rule:nonzero;stroke:none"
             id="path3821"
             inkscape:connector-curvature="0" /></g><g
           id="g3823"
           transform="translate(60.9194,194.8145)"><path
             d="m 0,0 c -7.31,-1.939 -8.882,-3.512 -10.821,-10.822 -1.94,7.31 -3.512,8.883 -10.822,10.822 7.31,1.939 8.882,3.512 10.822,10.82 C -8.882,3.512 -7.31,1.939 0,0"
             style="fill:#ffffff;fill-opacity:1;fill-rule:nonzero;stroke:none"
             id="path3825"
             inkscape:connector-curvature="0" /></g><g
           id="g3827"
           transform="translate(146.2534,350.9971)"><path
             d="M 0,0 C -3.933,-1.043 -4.778,-1.889 -5.822,-5.822 -6.865,-1.889 -7.711,-1.043 -11.644,0 -7.711,1.043 -6.865,1.889 -5.822,5.822 -4.778,1.889 -3.933,1.043 0,0"
             style="fill:#ffffff;fill-opacity:1;fill-rule:nonzero;stroke:none"
             id="path3829"
             inkscape:connector-curvature="0" /></g><g
           id="g3831"
           transform="translate(166.0859,364.897)"><path
             d="m 0,0 c -6.128,-1.626 -7.446,-2.944 -9.072,-9.072 -1.625,6.128 -2.943,7.446 -9.071,9.072 6.128,1.626 7.446,2.944 9.071,9.072 C -7.446,2.944 -6.128,1.626 0,0"
             style="fill:#ffffff;fill-opacity:1;fill-rule:nonzero;stroke:none"
             id="path3833"
             inkscape:connector-curvature="0" /></g><g
           id="g3835"
           transform="translate(472.5039,407.4795)"><path
             d="m 0,0 c -6.129,-1.626 -7.445,-2.944 -9.072,-9.072 -1.625,6.128 -2.944,7.446 -9.071,9.072 6.127,1.626 7.446,2.944 9.071,9.072 C -7.445,2.944 -6.129,1.626 0,0"
             style="fill:#ffffff;fill-opacity:1;fill-rule:nonzero;stroke:none"
             id="path3837"
             inkscape:connector-curvature="0" /></g><g
           id="g3839"
           transform="translate(467.6699,180.3145)"><path
             d="m 0,0 c -6.129,-1.627 -7.445,-2.945 -9.072,-9.072 -1.625,6.127 -2.944,7.445 -9.071,9.072 6.127,1.625 7.446,2.943 9.071,9.07 C -7.445,2.943 -6.129,1.625 0,0"
             style="fill:#ffffff;fill-opacity:1;fill-rule:nonzero;stroke:none"
             id="path3841"
             inkscape:connector-curvature="0" /></g><g
           id="g3843"
           transform="translate(417.8359,96.8125)"><path
             d="m 0,0 c -6.127,-1.625 -7.445,-2.943 -9.07,-9.07 -1.627,6.127 -2.944,7.445 -9.073,9.07 6.129,1.627 7.446,2.945 9.073,9.072 C -7.445,2.945 -6.127,1.627 0,0"
             style="fill:#ffffff;fill-opacity:1;fill-rule:nonzero;stroke:none"
             id="path3845"
             inkscape:connector-curvature="0" /></g><g
           id="g3847"
           transform="translate(44.147,174.0645)"><path
             d="M 0,0 C -4.367,-1.16 -5.306,-2.1 -6.465,-6.467 -7.624,-2.1 -8.563,-1.16 -12.93,0 -8.563,1.158 -7.624,2.098 -6.465,6.465 -5.306,2.098 -4.367,1.158 0,0"
             style="fill:#ffffff;fill-opacity:1;fill-rule:nonzero;stroke:none"
             id="path3849"
             inkscape:connector-curvature="0" /></g><g
           id="g3851"
           transform="translate(96.5635,129.8145)"><path
             d="M 0,0 C -4.367,-1.16 -5.306,-2.1 -6.465,-6.467 -7.624,-2.1 -8.563,-1.16 -12.93,0 -8.563,1.158 -7.624,2.098 -6.465,6.465 -5.306,2.098 -4.367,1.158 0,0"
             style="fill:#ffffff;fill-opacity:1;fill-rule:nonzero;stroke:none"
             id="path3853"
             inkscape:connector-curvature="0" /></g><g
           id="g3855"
           transform="translate(446.5645,448.146)"><path
             d="M 0,0 C -4.367,-1.159 -5.307,-2.098 -6.467,-6.465 -7.625,-2.098 -8.564,-1.159 -12.932,0 -8.564,1.159 -7.625,2.098 -6.467,6.465 -5.307,2.098 -4.367,1.159 0,0"
             style="fill:#ffffff;fill-opacity:1;fill-rule:nonzero;stroke:none"
             id="path3857"
             inkscape:connector-curvature="0" /></g><g
           id="g3859"
           transform="translate(397.0566,73.4805)"><path
             d="M 0,0 C -8.865,-2.354 -10.773,-4.26 -13.125,-13.125 -15.477,-4.26 -17.385,-2.354 -26.25,0 -17.385,2.352 -15.477,4.258 -13.125,13.125 -10.773,4.258 -8.865,2.352 0,0"
             style="fill:#ffffff;fill-opacity:1;fill-rule:nonzero;stroke:none"
             id="path3861"
             inkscape:connector-curvature="0" /></g><g
           id="g3863"
           transform="translate(66.0562,102.4805)"><path
             d="M 0,0 C -8.865,-2.354 -10.772,-4.26 -13.125,-13.125 -15.477,-4.26 -17.383,-2.354 -26.249,0 -17.383,2.352 -15.477,4.258 -13.125,13.125 -10.772,4.258 -8.865,2.352 0,0"
             style="fill:#ffffff;fill-opacity:1;fill-rule:nonzero;stroke:none"
             id="path3865"
             inkscape:connector-curvature="0" /></g><g
           id="g3867"
           transform="translate(469.2539,329.48)"><path
             d="m 0,0 c -3.934,-1.043 -4.779,-1.889 -5.822,-5.822 -1.043,3.933 -1.889,4.779 -5.823,5.822 3.934,1.043 4.78,1.889 5.823,5.822 C -4.779,1.889 -3.934,1.043 0,0"
             style="fill:#ffffff;fill-opacity:1;fill-rule:nonzero;stroke:none"
             id="path3869"
             inkscape:connector-curvature="0" /></g><g
           id="g3871"
           transform="translate(47.4199,401.3135)"><path
             d="M 0,0 C -3.933,-1.043 -4.778,-1.889 -5.822,-5.822 -6.865,-1.889 -7.711,-1.043 -11.644,0 -7.711,1.043 -6.865,1.889 -5.822,5.822 -4.778,1.889 -3.933,1.043 0,0"
             style="fill:#ffffff;fill-opacity:1;fill-rule:nonzero;stroke:none"
             id="path3873"
             inkscape:connector-curvature="0" /></g><g
           id="g3875"
           transform="translate(142.6245,462.8071)" /><g
           id="g3879"
           transform="translate(119.4448,442.6362)" /><g
           id="g3883"
           transform="translate(320.7246,417.0137)" /><g
           id="g3887"
           transform="translate(357.7344,441.7822)" /><g
           id="g3891"
           transform="translate(127.7769,448.3354)" /><g
           id="g3895"><g
             id="g3897" /><g
             id="g3903"><g
               clip-path="url(#clipPath3899)"
               id="g3905"
               style="opacity:0.39999402"><g
                 transform="translate(305.0459,475.4316)"
                 id="g3907" /></g></g></g><g
           id="g3911"><g
             id="g3913" /><g
             id="g3919"><g
               clip-path="url(#clipPath3915)"
               id="g3921"
               style="opacity:0.39999402"><g
                 transform="translate(255.7471,451.2236)"
                 id="g3923" /></g></g></g><g
           id="g3927"><g
             id="g3929" /><g
             id="g3935"><g
               clip-path="url(#clipPath3931)"
               id="g3937"
               style="opacity:0.39999402"><g
                 transform="translate(181.7773,424.3599)"
                 id="g3939" /></g></g></g></g></g><g
       id="g3971"><g
         id="g3973"
         clip-path="url(#clipPath3975)"><g
           id="g3979"
           transform="translate(158.2451,422.7075)"><path
             d="m 0,0 c -4.479,-1.188 -5.442,-2.151 -6.63,-6.63 -1.188,4.479 -2.151,5.442 -6.63,6.63 4.479,1.188 5.442,2.151 6.63,6.63 C -5.442,2.151 -4.479,1.188 0,0"
             style="fill:#ffffff;fill-opacity:1;fill-rule:nonzero;stroke:none"
             id="path3981"
             inkscape:connector-curvature="0" /></g><g
           id="g3983"
           transform="translate(334.1865,468.8281)"><path
             d="m 0,0 c -4.479,-1.188 -5.441,-2.151 -6.63,-6.63 -1.187,4.479 -2.151,5.442 -6.63,6.63 4.479,1.188 5.443,2.151 6.63,6.63 C -5.441,2.151 -4.479,1.188 0,0"
             style="fill:#ffffff;fill-opacity:1;fill-rule:nonzero;stroke:none"
             id="path3985"
             inkscape:connector-curvature="0" /></g><g
           id="g3987"
           transform="translate(342.1582,457.1558)"><path
             d="M 0,0 C -2.363,-0.627 -2.871,-1.135 -3.498,-3.498 -4.125,-1.135 -4.633,-0.627 -6.996,0 -4.633,0.627 -4.125,1.135 -3.498,3.498 -2.871,1.135 -2.363,0.627 0,0"
             style="fill:#ffffff;fill-opacity:1;fill-rule:nonzero;stroke:none"
             id="path3989"
             inkscape:connector-curvature="0" /></g><g
           id="g3991"
           transform="translate(146.2871,405.9106)"><path
             d="M 0,0 C -2.362,-0.627 -2.871,-1.135 -3.498,-3.498 -4.125,-1.135 -4.633,-0.627 -6.995,0 -4.633,0.627 -4.125,1.135 -3.498,3.498 -2.871,1.135 -2.362,0.627 0,0"
             style="fill:#ffffff;fill-opacity:1;fill-rule:nonzero;stroke:none"
             id="path3993"
             inkscape:connector-curvature="0" /></g><g
           id="g3995"
           transform="translate(146.3853,434.3252)" /><g
           id="g3999"
           transform="translate(159.8237,437.6846)" /><g
           id="g4003"
           transform="translate(170.6768,441.0444)" /><g
           id="g4007"
           transform="translate(352.2334,481.458)" /><g
           id="g4011"
           transform="translate(353.1201,475.4146)" /><g
           id="g4015"
           transform="translate(353.3779,445.4375)" /><g
           id="g4019"
           transform="translate(144.3184,394.7871)" /></g></g><g
       id="g4023"><g
         id="g4025"
         clip-path="url(#clipPath4027)"><g
           id="g4031"
           transform="translate(248.7769,25.9707)" /></g></g></g></svg>